<mxfile host="65bd71144e">
    <diagram id="Bxsv_AXu6MHXlV-1nLFD" name="Page-1">
        <mxGraphModel dx="1847" dy="3971" grid="1" gridSize="10" guides="1" tooltips="1" connect="1" arrows="1" fold="1" page="1" pageScale="1" pageWidth="850" pageHeight="1100" math="0" shadow="0">
            <root>
                <mxCell id="0"/>
                <mxCell id="1" parent="0"/>
                <mxCell id="690" value="" style="shape=table;html=1;whiteSpace=wrap;startSize=0;container=1;collapsible=0;childLayout=tableLayout;fontSize=20;strokeColor=#000000;verticalAlign=bottom;fillColor=none;strokeWidth=5;movable=1;resizable=1;rotatable=1;deletable=1;editable=1;connectable=1;" parent="1" vertex="1">
                    <mxGeometry x="4670" y="-540" width="2090" height="1310" as="geometry"/>
                </mxCell>
                <mxCell id="695" value="" style="shape=partialRectangle;html=1;whiteSpace=wrap;collapsible=0;dropTarget=0;pointerEvents=0;fillColor=none;top=0;left=0;bottom=0;right=0;points=[[0,0.5],[1,0.5]];portConstraint=eastwest;" parent="690" vertex="1">
                    <mxGeometry width="2090" height="674" as="geometry"/>
                </mxCell>
                <mxCell id="696" value="" style="shape=partialRectangle;html=1;whiteSpace=wrap;connectable=0;fillColor=none;top=0;left=0;bottom=0;right=0;overflow=hidden;pointerEvents=1;" parent="695" vertex="1">
                    <mxGeometry width="690" height="674" as="geometry"/>
                </mxCell>
                <mxCell id="697" value="" style="shape=partialRectangle;html=1;whiteSpace=wrap;connectable=0;fillColor=none;top=0;left=0;bottom=0;right=0;overflow=hidden;pointerEvents=1;" parent="695" vertex="1">
                    <mxGeometry x="690" width="700" height="674" as="geometry"/>
                </mxCell>
                <mxCell id="728" style="shape=partialRectangle;html=1;whiteSpace=wrap;connectable=0;fillColor=none;top=0;left=0;bottom=0;right=0;overflow=hidden;pointerEvents=1;" vertex="1" parent="695">
                    <mxGeometry x="1390" width="700" height="674" as="geometry"/>
                </mxCell>
                <mxCell id="691" value="" style="shape=partialRectangle;html=1;whiteSpace=wrap;collapsible=0;dropTarget=0;pointerEvents=0;fillColor=none;top=0;left=0;bottom=0;right=0;points=[[0,0.5],[1,0.5]];portConstraint=eastwest;" parent="690" vertex="1">
                    <mxGeometry y="674" width="2090" height="636" as="geometry"/>
                </mxCell>
                <mxCell id="692" value="" style="shape=partialRectangle;html=1;whiteSpace=wrap;connectable=0;fillColor=none;top=0;left=0;bottom=0;right=0;overflow=hidden;pointerEvents=1;" parent="691" vertex="1">
                    <mxGeometry width="690" height="636" as="geometry"/>
                </mxCell>
                <mxCell id="693" value="" style="shape=partialRectangle;html=1;whiteSpace=wrap;connectable=0;fillColor=none;top=0;left=0;bottom=0;right=0;overflow=hidden;pointerEvents=1;" parent="691" vertex="1">
                    <mxGeometry x="690" width="700" height="636" as="geometry"/>
                </mxCell>
                <mxCell id="729" style="shape=partialRectangle;html=1;whiteSpace=wrap;connectable=0;fillColor=none;top=0;left=0;bottom=0;right=0;overflow=hidden;pointerEvents=1;" vertex="1" parent="691">
                    <mxGeometry x="1390" width="700" height="636" as="geometry"/>
                </mxCell>
                <mxCell id="725" value="Hardware Implementation Choices For Different Communication Types" style="rounded=0;whiteSpace=wrap;html=1;fontSize=60;strokeColor=#000000;strokeWidth=5;fillColor=none;verticalAlign=middle;fontStyle=1;horizontal=0;" parent="1" vertex="1">
                    <mxGeometry x="4330" y="-540.1" width="170" height="1310.1" as="geometry"/>
                </mxCell>
                <mxCell id="726" value="&lt;span style=&quot;font-size: 60px;&quot;&gt;Reuse Type&lt;/span&gt;" style="rounded=0;whiteSpace=wrap;html=1;fontSize=60;strokeColor=#000000;strokeWidth=5;fillColor=none;verticalAlign=middle;fontStyle=1" parent="1" vertex="1">
                    <mxGeometry x="4670" y="-840" width="2090" height="130" as="geometry"/>
                </mxCell>
                <mxCell id="1woVSW_QeIxlfaoUP5wK-726" value="Multicast" style="rounded=0;whiteSpace=wrap;html=1;fontSize=60;strokeColor=#000000;strokeWidth=5;fillColor=none;verticalAlign=middle;fontStyle=1;horizontal=0;labelBorderColor=none;" parent="1" vertex="1">
                    <mxGeometry x="4500" y="-540" width="170" height="675" as="geometry"/>
                </mxCell>
                <mxCell id="1woVSW_QeIxlfaoUP5wK-728" value="&lt;font style=&quot;font-size: 60px&quot;&gt;&lt;b&gt;Fanout (e.g Bus, Tree)&lt;/b&gt;&lt;/font&gt;" style="text;html=1;strokeColor=none;fillColor=none;align=center;verticalAlign=middle;whiteSpace=wrap;rounded=0;fontSize=50;" parent="1" vertex="1">
                    <mxGeometry x="4685" y="20" width="680" height="75" as="geometry"/>
                </mxCell>
                <mxCell id="198" value="" style="ellipse;whiteSpace=wrap;html=1;aspect=fixed;fontSize=30;strokeColor=#000000;fillColor=#FFD966;opacity=80;" parent="1" vertex="1">
                    <mxGeometry x="4984" y="-530" width="150" height="150" as="geometry"/>
                </mxCell>
                <mxCell id="199" value="" style="ellipse;whiteSpace=wrap;html=1;aspect=fixed;fillColor=#67AB9F;strokeWidth=4;strokeColor=#000000;" parent="1" vertex="1">
                    <mxGeometry x="5043.84" y="-515.2600000000002" width="40" height="40" as="geometry"/>
                </mxCell>
                <mxCell id="200" value="" style="endArrow=none;html=1;rounded=0;strokeColor=#000000;strokeWidth=4;exitX=0;exitY=0;exitDx=0;exitDy=0;entryX=1;entryY=1;entryDx=0;entryDy=0;" parent="1" source="199" target="199" edge="1">
                    <mxGeometry x="4700" y="-530" width="50" height="50" as="geometry">
                        <mxPoint x="5059.62" y="-483.5100000000002" as="sourcePoint"/>
                        <mxPoint x="5084.62" y="-514.7600000000002" as="targetPoint"/>
                    </mxGeometry>
                </mxCell>
                <mxCell id="201" value="" style="endArrow=none;html=1;rounded=0;strokeColor=#000000;strokeWidth=4;exitX=0;exitY=1;exitDx=0;exitDy=0;entryX=1;entryY=0;entryDx=0;entryDy=0;" parent="1" source="199" target="199" edge="1">
                    <mxGeometry x="4700" y="-530" width="50" height="50" as="geometry">
                        <mxPoint x="5015.477864376269" y="-538.6876695296639" as="sourcePoint"/>
                        <mxPoint x="5043.931484117606" y="-503.5465818803036" as="targetPoint"/>
                    </mxGeometry>
                </mxCell>
                <mxCell id="202" style="edgeStyle=orthogonalEdgeStyle;jumpStyle=none;jumpSize=6;orthogonalLoop=1;jettySize=auto;html=1;entryX=0;entryY=0.5;entryDx=0;entryDy=0;startArrow=none;startFill=0;endArrow=classic;endFill=1;startSize=1;endSize=1;strokeColor=#000000;strokeWidth=3;rounded=1;exitX=0.5;exitY=0;exitDx=0;exitDy=0;" parent="1" source="216" target="199" edge="1">
                    <mxGeometry x="4700" y="-530" as="geometry">
                        <Array as="points">
                            <mxPoint x="5020.21" y="-495.1700000000002"/>
                            <mxPoint x="5044.21" y="-495.1700000000002"/>
                        </Array>
                    </mxGeometry>
                </mxCell>
                <mxCell id="203" value="" style="ellipse;whiteSpace=wrap;html=1;aspect=fixed;fillColor=#e1d5e7;strokeColor=#000000;strokeWidth=4;" parent="1" vertex="1">
                    <mxGeometry x="5027.209999999999" y="-431.7500000000001" width="40" height="40" as="geometry"/>
                </mxCell>
                <mxCell id="204" value="" style="endArrow=none;html=1;rounded=0;strokeColor=#000000;entryX=0.5;entryY=0;entryDx=0;entryDy=0;exitX=0.5;exitY=1;exitDx=0;exitDy=0;strokeWidth=4;" parent="1" source="203" target="203" edge="1">
                    <mxGeometry x="4700" y="-530" width="50" height="50" as="geometry">
                        <mxPoint x="5054.62" y="-468.7600000000002" as="sourcePoint"/>
                        <mxPoint x="5104.62" y="-518.7600000000002" as="targetPoint"/>
                    </mxGeometry>
                </mxCell>
                <mxCell id="205" style="edgeStyle=orthogonalEdgeStyle;rounded=1;jumpStyle=none;jumpSize=6;orthogonalLoop=1;jettySize=auto;html=1;entryX=0.5;entryY=0;entryDx=0;entryDy=0;startArrow=none;startFill=0;endArrow=classic;endFill=1;startSize=1;endSize=1;strokeColor=#000000;strokeWidth=4;" parent="1" source="199" target="203" edge="1">
                    <mxGeometry x="4700" y="-530" as="geometry"/>
                </mxCell>
                <mxCell id="206" value="" style="endArrow=none;html=1;rounded=0;strokeColor=#000000;entryX=0;entryY=0.5;entryDx=0;entryDy=0;exitX=1;exitY=0.5;exitDx=0;exitDy=0;strokeWidth=4;" parent="1" source="203" target="203" edge="1">
                    <mxGeometry x="4700" y="-530" width="50" height="50" as="geometry">
                        <mxPoint x="5104.62" y="-568.7600000000002" as="sourcePoint"/>
                        <mxPoint x="5104.62" y="-628.7600000000002" as="targetPoint"/>
                    </mxGeometry>
                </mxCell>
                <mxCell id="208" value="" style="rounded=0;whiteSpace=wrap;html=1;glass=0;strokeColor=#000000;strokeWidth=4;fillColor=#FFD966;" parent="1" vertex="1">
                    <mxGeometry x="5090.73" y="-467.7500000000001" width="20" height="36" as="geometry"/>
                </mxCell>
                <mxCell id="209" value="" style="endArrow=none;html=1;rounded=0;startSize=1;endSize=1;strokeColor=#000000;strokeWidth=4;jumpStyle=none;jumpSize=6;" parent="1" edge="1">
                    <mxGeometry x="4700" y="-530" width="50" height="50" as="geometry">
                        <mxPoint x="5090.729999999998" y="-431.75000000000034" as="sourcePoint"/>
                        <mxPoint x="5100.729999999998" y="-442.25000000000034" as="targetPoint"/>
                    </mxGeometry>
                </mxCell>
                <mxCell id="210" value="" style="endArrow=none;html=1;rounded=0;startSize=1;endSize=1;strokeColor=#000000;strokeWidth=4;jumpStyle=none;jumpSize=6;" parent="1" edge="1">
                    <mxGeometry x="4700" y="-530" width="50" height="50" as="geometry">
                        <mxPoint x="5099.589999999998" y="-441.75000000000034" as="sourcePoint"/>
                        <mxPoint x="5109.589999999998" y="-431.75000000000034" as="targetPoint"/>
                    </mxGeometry>
                </mxCell>
                <mxCell id="213" style="edgeStyle=orthogonalEdgeStyle;orthogonalLoop=1;jettySize=auto;html=1;entryX=0;entryY=0.25;entryDx=0;entryDy=0;fontSize=12;fontColor=#000000;strokeWidth=2;endSize=0;rounded=1;fillColor=#f8cecc;exitX=1;exitY=0.5;exitDx=0;exitDy=0;" parent="1" source="203" target="208" edge="1">
                    <mxGeometry x="4700" y="-530" as="geometry">
                        <Array as="points">
                            <mxPoint x="5076" y="-412"/>
                            <mxPoint x="5076" y="-459"/>
                        </Array>
                        <mxPoint x="5110.715" y="-438.01309627332466" as="sourcePoint"/>
                    </mxGeometry>
                </mxCell>
                <mxCell id="216" value="" style="whiteSpace=wrap;html=1;aspect=fixed;fillColor=#dae8fc;strokeColor=#000000;strokeWidth=4;" parent="1" vertex="1">
                    <mxGeometry x="5006.17" y="-474.2600000000002" width="27.5" height="27.5" as="geometry"/>
                </mxCell>
                <mxCell id="217" value="C0" style="whiteSpace=wrap;html=1;aspect=fixed;fillColor=#d5e8d4;strokeColor=#000000;strokeWidth=3;fontSize=30;fontStyle=1;verticalAlign=top;" parent="1" vertex="1">
                    <mxGeometry x="4750.34" y="-442.80000000000007" width="72.7" height="72.7" as="geometry"/>
                </mxCell>
                <mxCell id="219" value="" style="rounded=0;whiteSpace=wrap;html=1;fontSize=50;fontColor=#000000;strokeColor=#000000;strokeWidth=6;fillColor=#000000;" parent="1" vertex="1">
                    <mxGeometry x="4771.6900000000005" y="-368.35" width="30" height="11" as="geometry"/>
                </mxCell>
                <mxCell id="220" value="RAG" style="ellipse;whiteSpace=wrap;html=1;aspect=fixed;sketch=0;fillColor=#d5e8d4;strokeColor=#82b366;" parent="1" vertex="1">
                    <mxGeometry x="4771.29" y="-405.1" width="30" height="30" as="geometry"/>
                </mxCell>
                <mxCell id="221" value="0" style="rounded=0;whiteSpace=wrap;html=1;fontSize=15;strokeWidth=2;fontStyle=1;fillColor=#d5e8d4;strokeColor=#000000;" parent="1" vertex="1">
                    <mxGeometry x="4776.249746551833" y="-324.66004588485555" width="20.691617301912025" height="22.19531994510499" as="geometry"/>
                </mxCell>
                <mxCell id="218" style="edgeStyle=orthogonalEdgeStyle;rounded=1;html=1;entryX=0.5;entryY=0;entryDx=0;entryDy=0;fontSize=30;startArrow=none;startFill=0;endArrow=classic;endFill=1;strokeColor=#000000;strokeWidth=3;verticalAlign=middle;" parent="1" source="219" target="221" edge="1">
                    <mxGeometry x="4700" y="-530" as="geometry"/>
                </mxCell>
                <mxCell id="222" style="edgeStyle=orthogonalEdgeStyle;curved=1;orthogonalLoop=1;jettySize=auto;html=1;entryX=1;entryY=0.5;entryDx=0;entryDy=0;fontSize=12;endSize=1;strokeWidth=2;" parent="1" edge="1">
                    <mxGeometry x="4722.42" y="-341.6" as="geometry">
                        <mxPoint x="4796.941363853744" y="-313.599789136655" as="sourcePoint"/>
                        <mxPoint x="4796.941363853744" y="-291.3892612871431" as="targetPoint"/>
                        <Array as="points">
                            <mxPoint x="4818.150271588204" y="-313.92860869139724"/>
                            <mxPoint x="4818.150271588204" y="-291.73328874629226"/>
                        </Array>
                    </mxGeometry>
                </mxCell>
                <mxCell id="223" value="1" style="rounded=0;whiteSpace=wrap;html=1;fontSize=15;strokeWidth=2;fontStyle=1;fillColor=#d5e8d4;strokeColor=#000000;" parent="1" vertex="1">
                    <mxGeometry x="4776.249746551833" y="-302.46472593975056" width="20.691617301912025" height="22.19531994510499" as="geometry"/>
                </mxCell>
                <mxCell id="224" value="2" style="rounded=0;whiteSpace=wrap;html=1;fontSize=15;strokeWidth=2;fontStyle=1;fillColor=#d5e8d4;strokeColor=#000000;" parent="1" vertex="1">
                    <mxGeometry x="4776.249746551833" y="-280.2694059946456" width="20.691617301912025" height="22.19531994510499" as="geometry"/>
                </mxCell>
                <mxCell id="225" style="edgeStyle=orthogonalEdgeStyle;curved=1;orthogonalLoop=1;jettySize=auto;html=1;entryX=0;entryY=0.5;entryDx=0;entryDy=0;fontSize=12;strokeWidth=2;endSize=1;" parent="1" edge="1">
                    <mxGeometry x="4722.42" y="-341.6" as="geometry">
                        <mxPoint x="4760.213743142851" y="-326.1138393412597" as="sourcePoint"/>
                        <mxPoint x="4776.249746551833" y="-312.13078777584394" as="targetPoint"/>
                        <Array as="points">
                            <mxPoint x="4760.213743142851" y="-334.6701351800979"/>
                            <mxPoint x="4760.213743142851" y="-312.4748152349929"/>
                        </Array>
                    </mxGeometry>
                </mxCell>
                <mxCell id="226" style="edgeStyle=orthogonalEdgeStyle;curved=1;orthogonalLoop=1;jettySize=auto;html=1;entryX=0;entryY=0.5;entryDx=0;entryDy=0;fontSize=12;strokeWidth=2;endSize=1;" parent="1" edge="1">
                    <mxGeometry x="4722.42" y="-341.6" as="geometry">
                        <mxPoint x="4776.249746551833" y="-289.93957807517324" as="sourcePoint"/>
                        <mxPoint x="4776.249746551833" y="-267.72905022566135" as="targetPoint"/>
                        <Array as="points">
                            <mxPoint x="4760.213743142851" y="-290.2683976299153"/>
                            <mxPoint x="4760.213743142851" y="-268.0730776848104"/>
                        </Array>
                    </mxGeometry>
                </mxCell>
                <mxCell id="227" style="edgeStyle=orthogonalEdgeStyle;curved=1;orthogonalLoop=1;jettySize=auto;html=1;entryX=1;entryY=0.5;entryDx=0;entryDy=0;fontSize=12;endSize=1;strokeWidth=2;" parent="1" edge="1">
                    <mxGeometry x="4722.42" y="-341.6" as="geometry">
                        <mxPoint x="4796.941363853744" y="-269.1980515864724" as="sourcePoint"/>
                        <mxPoint x="4796.941363853744" y="-246.98752373696072" as="targetPoint"/>
                        <Array as="points">
                            <mxPoint x="4818.150271588204" y="-269.52687114121477"/>
                            <mxPoint x="4818.150271588204" y="-247.33155119610979"/>
                        </Array>
                    </mxGeometry>
                </mxCell>
                <mxCell id="228" value="t=1" style="text;html=1;align=center;verticalAlign=middle;resizable=0;points=[];autosize=1;strokeColor=none;fillColor=none;fontSize=15;fontStyle=1" parent="1" vertex="1">
                    <mxGeometry x="4816.429492156061" y="-314.8128754913404" width="40" height="20" as="geometry"/>
                </mxCell>
                <mxCell id="229" value="t=2" style="text;html=1;align=center;verticalAlign=middle;resizable=0;points=[];autosize=1;strokeColor=none;fillColor=none;fontSize=15;fontStyle=1" parent="1" vertex="1">
                    <mxGeometry x="4727.592904325478" y="-290.70632836575544" width="40" height="20" as="geometry"/>
                </mxCell>
                <mxCell id="230" value="" style="endArrow=none;dashed=1;html=1;fontSize=15;endSize=1;strokeWidth=2;curved=1;fontStyle=1" parent="1" edge="1">
                    <mxGeometry x="4722.42" y="-487.45000000000016" width="50" height="50" as="geometry">
                        <mxPoint x="4786.50244292493" y="-226.36152648870063" as="sourcePoint"/>
                        <mxPoint x="4786.42" y="-258.07000000000005" as="targetPoint"/>
                    </mxGeometry>
                </mxCell>
                <mxCell id="231" value="t=3" style="text;html=1;align=center;verticalAlign=middle;resizable=0;points=[];autosize=1;strokeColor=none;fillColor=none;fontSize=15;fontStyle=1" parent="1" vertex="1">
                    <mxGeometry x="4816.429492156061" y="-269.3548902449538" width="40" height="20" as="geometry"/>
                </mxCell>
                <mxCell id="270" style="edgeStyle=orthogonalEdgeStyle;rounded=1;html=1;entryX=0;entryY=0.5;entryDx=0;entryDy=0;fontSize=30;startArrow=none;startFill=0;endArrow=classic;endFill=1;strokeWidth=5;verticalAlign=middle;exitX=0.5;exitY=1;exitDx=0;exitDy=0;strokeColor=#FF0000;" parent="1" source="232" edge="1">
                    <mxGeometry x="4700" y="-530" as="geometry">
                        <mxPoint x="4786.6" y="-200.62000000000012" as="sourcePoint"/>
                        <mxPoint x="4984" y="-450.0000000000001" as="targetPoint"/>
                        <Array as="points">
                            <mxPoint x="4787" y="-122.18000000000006"/>
                            <mxPoint x="4892" y="-122.18000000000006"/>
                            <mxPoint x="4892" y="-450.18000000000006"/>
                        </Array>
                    </mxGeometry>
                </mxCell>
                <mxCell id="232" value="X-1" style="rounded=0;whiteSpace=wrap;html=1;fontSize=15;strokeWidth=2;fontStyle=1;fillColor=#d5e8d4;strokeColor=#000000;" parent="1" vertex="1">
                    <mxGeometry x="4772.52" y="-227.82000000000005" width="28.17" height="22.2" as="geometry"/>
                </mxCell>
                <mxCell id="233" style="edgeStyle=orthogonalEdgeStyle;curved=1;orthogonalLoop=1;jettySize=auto;html=1;fontSize=12;strokeWidth=2;endSize=1;entryX=0;entryY=0.5;entryDx=0;entryDy=0;" parent="1" target="232" edge="1">
                    <mxGeometry x="4722.42" y="-487.45000000000016" as="geometry">
                        <mxPoint x="4750" y="-239.35000000000002" as="sourcePoint"/>
                        <mxPoint x="4732.538705001543" y="-205.6199999999999" as="targetPoint"/>
                        <Array as="points">
                            <mxPoint x="4750" y="-216.35000000000002"/>
                        </Array>
                    </mxGeometry>
                </mxCell>
                <mxCell id="234" value="" style="endArrow=classic;html=1;fontSize=12;endSize=1;strokeWidth=2;curved=1;exitX=1;exitY=0.5;exitDx=0;exitDy=0;entryX=1.114;entryY=-0.002;entryDx=0;entryDy=0;entryPerimeter=0;" parent="1" source="232" target="221" edge="1">
                    <mxGeometry x="1494.42" y="27.779999999999973" width="50" height="50" as="geometry">
                        <mxPoint x="4861.995808650956" y="-126.35595983531505" as="sourcePoint"/>
                        <mxPoint x="4913.724851905737" y="-181.8442596980775" as="targetPoint"/>
                        <Array as="points">
                            <mxPoint x="4864.42" y="-216.22000000000003"/>
                            <mxPoint x="4844.42" y="-382.22000000000014"/>
                        </Array>
                    </mxGeometry>
                </mxCell>
                <mxCell id="235" value="t=X" style="text;html=1;align=center;verticalAlign=middle;resizable=0;points=[];autosize=1;strokeColor=none;fillColor=none;fontSize=15;fontStyle=1" parent="1" vertex="1">
                    <mxGeometry x="4806.702252570233" y="-217.18000000000006" width="40" height="20" as="geometry"/>
                </mxCell>
                <mxCell id="236" value="t=0" style="text;html=1;align=center;verticalAlign=middle;resizable=0;points=[];autosize=1;strokeColor=none;fillColor=none;fontSize=15;fontStyle=1" parent="1" vertex="1">
                    <mxGeometry x="4727.592904325478" y="-336.5285663924245" width="40" height="20" as="geometry"/>
                </mxCell>
                <mxCell id="237" value="t=X-1" style="text;html=1;align=center;verticalAlign=middle;resizable=0;points=[];autosize=1;strokeColor=none;fillColor=none;fontSize=15;fontStyle=1" parent="1" vertex="1">
                    <mxGeometry x="4700" y="-237.18150042522666" width="50" height="20" as="geometry"/>
                </mxCell>
                <mxCell id="239" value="" style="ellipse;whiteSpace=wrap;html=1;aspect=fixed;fontSize=30;strokeColor=#000000;fillColor=#FFD966;opacity=80;" parent="1" vertex="1">
                    <mxGeometry x="4984" y="-364.18000000000006" width="150" height="150" as="geometry"/>
                </mxCell>
                <mxCell id="268" style="edgeStyle=orthogonalEdgeStyle;rounded=1;html=1;fontSize=30;startArrow=none;startFill=0;endArrow=classic;endFill=1;strokeWidth=5;verticalAlign=middle;exitX=0.5;exitY=1;exitDx=0;exitDy=0;entryX=0;entryY=0.5;entryDx=0;entryDy=0;strokeColor=#FF0000;" parent="1" source="232" target="239" edge="1">
                    <mxGeometry x="4700" y="-530" as="geometry">
                        <mxPoint x="4786.60465116279" y="-200.62000000000012" as="sourcePoint"/>
                        <mxPoint x="4984" y="-277.18000000000006" as="targetPoint"/>
                        <Array as="points">
                            <mxPoint x="4786.17" y="-122.59000000000003"/>
                            <mxPoint x="4892.17" y="-122.59000000000003"/>
                            <mxPoint x="4892.17" y="-289.59000000000003"/>
                            <mxPoint x="4984.17" y="-289.59000000000003"/>
                        </Array>
                    </mxGeometry>
                </mxCell>
                <mxCell id="240" value="" style="ellipse;whiteSpace=wrap;html=1;aspect=fixed;fillColor=#67AB9F;strokeWidth=4;strokeColor=#000000;" parent="1" vertex="1">
                    <mxGeometry x="5043.84" y="-349.44000000000017" width="40" height="40" as="geometry"/>
                </mxCell>
                <mxCell id="241" value="" style="endArrow=none;html=1;rounded=0;strokeColor=#000000;strokeWidth=4;exitX=0;exitY=0;exitDx=0;exitDy=0;entryX=1;entryY=1;entryDx=0;entryDy=0;" parent="1" source="240" target="240" edge="1">
                    <mxGeometry x="4700" y="-530" width="50" height="50" as="geometry">
                        <mxPoint x="5059.62" y="-317.69000000000017" as="sourcePoint"/>
                        <mxPoint x="5084.62" y="-348.94000000000017" as="targetPoint"/>
                    </mxGeometry>
                </mxCell>
                <mxCell id="242" value="" style="endArrow=none;html=1;rounded=0;strokeColor=#000000;strokeWidth=4;exitX=0;exitY=1;exitDx=0;exitDy=0;entryX=1;entryY=0;entryDx=0;entryDy=0;" parent="1" source="240" target="240" edge="1">
                    <mxGeometry x="4700" y="-530" width="50" height="50" as="geometry">
                        <mxPoint x="5015.477864376269" y="-372.8676695296639" as="sourcePoint"/>
                        <mxPoint x="5043.931484117606" y="-337.72658188030357" as="targetPoint"/>
                    </mxGeometry>
                </mxCell>
                <mxCell id="243" style="edgeStyle=orthogonalEdgeStyle;jumpStyle=none;jumpSize=6;orthogonalLoop=1;jettySize=auto;html=1;entryX=0;entryY=0.5;entryDx=0;entryDy=0;startArrow=none;startFill=0;endArrow=classic;endFill=1;startSize=1;endSize=1;strokeColor=#000000;strokeWidth=3;rounded=1;exitX=0.5;exitY=0;exitDx=0;exitDy=0;" parent="1" source="252" target="240" edge="1">
                    <mxGeometry x="4700" y="-530" as="geometry">
                        <Array as="points">
                            <mxPoint x="5020.21" y="-329.35000000000014"/>
                            <mxPoint x="5044.21" y="-329.35000000000014"/>
                        </Array>
                    </mxGeometry>
                </mxCell>
                <mxCell id="244" value="" style="ellipse;whiteSpace=wrap;html=1;aspect=fixed;fillColor=#e1d5e7;strokeColor=#000000;strokeWidth=4;" parent="1" vertex="1">
                    <mxGeometry x="5027.209999999999" y="-265.93000000000006" width="40" height="40" as="geometry"/>
                </mxCell>
                <mxCell id="245" value="" style="endArrow=none;html=1;rounded=0;strokeColor=#000000;entryX=0.5;entryY=0;entryDx=0;entryDy=0;exitX=0.5;exitY=1;exitDx=0;exitDy=0;strokeWidth=4;" parent="1" source="244" target="244" edge="1">
                    <mxGeometry x="4700" y="-530" width="50" height="50" as="geometry">
                        <mxPoint x="5054.62" y="-302.94000000000017" as="sourcePoint"/>
                        <mxPoint x="5104.62" y="-352.94000000000017" as="targetPoint"/>
                    </mxGeometry>
                </mxCell>
                <mxCell id="246" style="edgeStyle=orthogonalEdgeStyle;rounded=1;jumpStyle=none;jumpSize=6;orthogonalLoop=1;jettySize=auto;html=1;entryX=0.5;entryY=0;entryDx=0;entryDy=0;startArrow=none;startFill=0;endArrow=classic;endFill=1;startSize=1;endSize=1;strokeColor=#000000;strokeWidth=4;" parent="1" source="240" target="244" edge="1">
                    <mxGeometry x="4700" y="-530" as="geometry"/>
                </mxCell>
                <mxCell id="247" value="" style="endArrow=none;html=1;rounded=0;strokeColor=#000000;entryX=0;entryY=0.5;entryDx=0;entryDy=0;exitX=1;exitY=0.5;exitDx=0;exitDy=0;strokeWidth=4;" parent="1" source="244" target="244" edge="1">
                    <mxGeometry x="4700" y="-530" width="50" height="50" as="geometry">
                        <mxPoint x="5104.62" y="-402.94000000000017" as="sourcePoint"/>
                        <mxPoint x="5104.62" y="-462.94000000000017" as="targetPoint"/>
                    </mxGeometry>
                </mxCell>
                <mxCell id="248" value="" style="rounded=0;whiteSpace=wrap;html=1;glass=0;strokeColor=#000000;strokeWidth=4;fillColor=#FFD966;" parent="1" vertex="1">
                    <mxGeometry x="5090.73" y="-301.93000000000006" width="20" height="36" as="geometry"/>
                </mxCell>
                <mxCell id="249" value="" style="endArrow=none;html=1;rounded=0;startSize=1;endSize=1;strokeColor=#000000;strokeWidth=4;jumpStyle=none;jumpSize=6;" parent="1" edge="1">
                    <mxGeometry x="4700" y="-530" width="50" height="50" as="geometry">
                        <mxPoint x="5090.729999999998" y="-265.9300000000002" as="sourcePoint"/>
                        <mxPoint x="5100.729999999998" y="-276.4300000000002" as="targetPoint"/>
                    </mxGeometry>
                </mxCell>
                <mxCell id="250" value="" style="endArrow=none;html=1;rounded=0;startSize=1;endSize=1;strokeColor=#000000;strokeWidth=4;jumpStyle=none;jumpSize=6;" parent="1" edge="1">
                    <mxGeometry x="4700" y="-530" width="50" height="50" as="geometry">
                        <mxPoint x="5099.589999999998" y="-275.9300000000002" as="sourcePoint"/>
                        <mxPoint x="5109.589999999998" y="-265.9300000000002" as="targetPoint"/>
                    </mxGeometry>
                </mxCell>
                <mxCell id="251" style="edgeStyle=orthogonalEdgeStyle;orthogonalLoop=1;jettySize=auto;html=1;entryX=0;entryY=0.25;entryDx=0;entryDy=0;fontSize=12;fontColor=#000000;strokeWidth=2;endSize=0;rounded=1;fillColor=#f8cecc;exitX=1;exitY=0.5;exitDx=0;exitDy=0;" parent="1" source="244" target="248" edge="1">
                    <mxGeometry x="4700" y="-530" as="geometry">
                        <Array as="points">
                            <mxPoint x="5076" y="-246.18000000000006"/>
                            <mxPoint x="5076" y="-293.18000000000006"/>
                        </Array>
                        <mxPoint x="5110.715" y="-272.1930962733247" as="sourcePoint"/>
                    </mxGeometry>
                </mxCell>
                <mxCell id="252" value="" style="whiteSpace=wrap;html=1;aspect=fixed;fillColor=#dae8fc;strokeColor=#000000;strokeWidth=4;" parent="1" vertex="1">
                    <mxGeometry x="5006.17" y="-308.44000000000017" width="27.5" height="27.5" as="geometry"/>
                </mxCell>
                <mxCell id="253" value="" style="ellipse;whiteSpace=wrap;html=1;aspect=fixed;fontSize=30;strokeColor=#000000;fillColor=#FFD966;opacity=80;" parent="1" vertex="1">
                    <mxGeometry x="4984" y="-197.18000000000006" width="150" height="150" as="geometry"/>
                </mxCell>
                <mxCell id="254" value="" style="ellipse;whiteSpace=wrap;html=1;aspect=fixed;fillColor=#67AB9F;strokeWidth=4;strokeColor=#000000;" parent="1" vertex="1">
                    <mxGeometry x="5043.84" y="-182.44000000000017" width="40" height="40" as="geometry"/>
                </mxCell>
                <mxCell id="255" value="" style="endArrow=none;html=1;rounded=0;strokeColor=#000000;strokeWidth=4;exitX=0;exitY=0;exitDx=0;exitDy=0;entryX=1;entryY=1;entryDx=0;entryDy=0;" parent="1" source="254" target="254" edge="1">
                    <mxGeometry x="4700" y="-530" width="50" height="50" as="geometry">
                        <mxPoint x="5059.62" y="-150.69000000000017" as="sourcePoint"/>
                        <mxPoint x="5084.62" y="-181.94000000000017" as="targetPoint"/>
                    </mxGeometry>
                </mxCell>
                <mxCell id="256" value="" style="endArrow=none;html=1;rounded=0;strokeColor=#000000;strokeWidth=4;exitX=0;exitY=1;exitDx=0;exitDy=0;entryX=1;entryY=0;entryDx=0;entryDy=0;" parent="1" source="254" target="254" edge="1">
                    <mxGeometry x="4700" y="-530" width="50" height="50" as="geometry">
                        <mxPoint x="5015.477864376269" y="-205.86766952966389" as="sourcePoint"/>
                        <mxPoint x="5043.931484117606" y="-170.72658188030357" as="targetPoint"/>
                    </mxGeometry>
                </mxCell>
                <mxCell id="257" style="edgeStyle=orthogonalEdgeStyle;jumpStyle=none;jumpSize=6;orthogonalLoop=1;jettySize=auto;html=1;entryX=0;entryY=0.5;entryDx=0;entryDy=0;startArrow=none;startFill=0;endArrow=classic;endFill=1;startSize=1;endSize=1;strokeColor=#000000;strokeWidth=3;rounded=1;exitX=0.5;exitY=0;exitDx=0;exitDy=0;" parent="1" source="266" target="254" edge="1">
                    <mxGeometry x="4700" y="-530" as="geometry">
                        <Array as="points">
                            <mxPoint x="5020.21" y="-162.35000000000014"/>
                            <mxPoint x="5044.21" y="-162.35000000000014"/>
                        </Array>
                    </mxGeometry>
                </mxCell>
                <mxCell id="258" value="" style="ellipse;whiteSpace=wrap;html=1;aspect=fixed;fillColor=#e1d5e7;strokeColor=#000000;strokeWidth=4;" parent="1" vertex="1">
                    <mxGeometry x="5027.209999999999" y="-98.93000000000006" width="40" height="40" as="geometry"/>
                </mxCell>
                <mxCell id="259" value="" style="endArrow=none;html=1;rounded=0;strokeColor=#000000;entryX=0.5;entryY=0;entryDx=0;entryDy=0;exitX=0.5;exitY=1;exitDx=0;exitDy=0;strokeWidth=4;" parent="1" source="258" target="258" edge="1">
                    <mxGeometry x="4700" y="-530" width="50" height="50" as="geometry">
                        <mxPoint x="5054.62" y="-135.94000000000017" as="sourcePoint"/>
                        <mxPoint x="5104.62" y="-185.94000000000017" as="targetPoint"/>
                    </mxGeometry>
                </mxCell>
                <mxCell id="260" style="edgeStyle=orthogonalEdgeStyle;rounded=1;jumpStyle=none;jumpSize=6;orthogonalLoop=1;jettySize=auto;html=1;entryX=0.5;entryY=0;entryDx=0;entryDy=0;startArrow=none;startFill=0;endArrow=classic;endFill=1;startSize=1;endSize=1;strokeColor=#000000;strokeWidth=4;" parent="1" source="254" target="258" edge="1">
                    <mxGeometry x="4700" y="-530" as="geometry"/>
                </mxCell>
                <mxCell id="261" value="" style="endArrow=none;html=1;rounded=0;strokeColor=#000000;entryX=0;entryY=0.5;entryDx=0;entryDy=0;exitX=1;exitY=0.5;exitDx=0;exitDy=0;strokeWidth=4;" parent="1" source="258" target="258" edge="1">
                    <mxGeometry x="4700" y="-530" width="50" height="50" as="geometry">
                        <mxPoint x="5104.62" y="-235.94000000000017" as="sourcePoint"/>
                        <mxPoint x="5104.62" y="-295.94000000000017" as="targetPoint"/>
                    </mxGeometry>
                </mxCell>
                <mxCell id="262" value="" style="rounded=0;whiteSpace=wrap;html=1;glass=0;strokeColor=#000000;strokeWidth=4;fillColor=#FFD966;" parent="1" vertex="1">
                    <mxGeometry x="5090.73" y="-134.93000000000006" width="20" height="36" as="geometry"/>
                </mxCell>
                <mxCell id="263" value="" style="endArrow=none;html=1;rounded=0;startSize=1;endSize=1;strokeColor=#000000;strokeWidth=4;jumpStyle=none;jumpSize=6;" parent="1" edge="1">
                    <mxGeometry x="4700" y="-530" width="50" height="50" as="geometry">
                        <mxPoint x="5090.729999999998" y="-98.93000000000029" as="sourcePoint"/>
                        <mxPoint x="5100.729999999998" y="-109.43000000000029" as="targetPoint"/>
                    </mxGeometry>
                </mxCell>
                <mxCell id="264" value="" style="endArrow=none;html=1;rounded=0;startSize=1;endSize=1;strokeColor=#000000;strokeWidth=4;jumpStyle=none;jumpSize=6;" parent="1" edge="1">
                    <mxGeometry x="4700" y="-530" width="50" height="50" as="geometry">
                        <mxPoint x="5099.589999999998" y="-108.93000000000029" as="sourcePoint"/>
                        <mxPoint x="5109.589999999998" y="-98.93000000000029" as="targetPoint"/>
                    </mxGeometry>
                </mxCell>
                <mxCell id="265" style="edgeStyle=orthogonalEdgeStyle;orthogonalLoop=1;jettySize=auto;html=1;entryX=0;entryY=0.25;entryDx=0;entryDy=0;fontSize=12;fontColor=#000000;strokeWidth=2;endSize=0;rounded=1;fillColor=#f8cecc;exitX=1;exitY=0.5;exitDx=0;exitDy=0;" parent="1" source="258" target="262" edge="1">
                    <mxGeometry x="4700" y="-530" as="geometry">
                        <Array as="points">
                            <mxPoint x="5076" y="-79.18000000000006"/>
                            <mxPoint x="5076" y="-126.18000000000006"/>
                        </Array>
                        <mxPoint x="5110.715" y="-105.19309627332473" as="sourcePoint"/>
                    </mxGeometry>
                </mxCell>
                <mxCell id="266" value="" style="whiteSpace=wrap;html=1;aspect=fixed;fillColor=#dae8fc;strokeColor=#000000;strokeWidth=4;" parent="1" vertex="1">
                    <mxGeometry x="5006.17" y="-141.44000000000017" width="27.5" height="27.5" as="geometry"/>
                </mxCell>
                <mxCell id="267" style="edgeStyle=orthogonalEdgeStyle;rounded=1;html=1;entryX=0;entryY=0.5;entryDx=0;entryDy=0;fontSize=30;startArrow=none;startFill=0;endArrow=classic;endFill=1;strokeWidth=5;verticalAlign=middle;strokeColor=#FF0000;" parent="1" source="232" target="253" edge="1">
                    <mxGeometry x="4700" y="-530" as="geometry">
                        <Array as="points">
                            <mxPoint x="4787" y="-122.18000000000006"/>
                        </Array>
                    </mxGeometry>
                </mxCell>
                <mxCell id="727" value="Reduction" style="rounded=0;whiteSpace=wrap;html=1;fontSize=60;strokeColor=#000000;strokeWidth=5;fillColor=none;verticalAlign=middle;fontStyle=1;horizontal=0;labelBorderColor=none;" vertex="1" parent="1">
                    <mxGeometry x="4500" y="135" width="170" height="635" as="geometry"/>
                </mxCell>
                <mxCell id="733" value="" style="group" vertex="1" connectable="0" parent="1">
                    <mxGeometry x="4720" y="159.9999999999999" width="640" height="562.18" as="geometry"/>
                </mxCell>
                <mxCell id="1woVSW_QeIxlfaoUP5wK-730" value="&lt;font style=&quot;font-size: 60px&quot;&gt;&lt;b&gt;FanIn (e.g Reduction Tree)&lt;/b&gt;&lt;/font&gt;" style="text;html=1;strokeColor=none;fillColor=none;align=center;verticalAlign=middle;whiteSpace=wrap;rounded=0;fontSize=50;" parent="733" vertex="1">
                    <mxGeometry x="150" y="487.17999999999995" width="490" height="75" as="geometry"/>
                </mxCell>
                <mxCell id="300" value="" style="ellipse;whiteSpace=wrap;html=1;aspect=fixed;fontSize=30;strokeColor=#000000;fillColor=#FFD966;opacity=80;" parent="733" vertex="1">
                    <mxGeometry width="135" height="135" as="geometry"/>
                </mxCell>
                <mxCell id="301" value="" style="ellipse;whiteSpace=wrap;html=1;aspect=fixed;fillColor=#67AB9F;strokeWidth=4;strokeColor=#000000;" parent="733" vertex="1">
                    <mxGeometry x="35" y="66.99999999999977" width="40" height="40" as="geometry"/>
                </mxCell>
                <mxCell id="302" value="" style="endArrow=none;html=1;rounded=0;strokeColor=#000000;strokeWidth=4;exitX=0;exitY=0;exitDx=0;exitDy=0;entryX=1;entryY=1;entryDx=0;entryDy=0;" parent="733" source="301" target="301" edge="1">
                    <mxGeometry width="50" height="50" as="geometry">
                        <mxPoint x="55.61999999999989" y="30.48999999999978" as="sourcePoint"/>
                        <mxPoint x="80.61999999999989" y="-0.7600000000002183" as="targetPoint"/>
                    </mxGeometry>
                </mxCell>
                <mxCell id="303" value="" style="endArrow=none;html=1;rounded=0;strokeColor=#000000;strokeWidth=4;exitX=0;exitY=1;exitDx=0;exitDy=0;entryX=1;entryY=0;entryDx=0;entryDy=0;" parent="733" source="301" target="301" edge="1">
                    <mxGeometry width="50" height="50" as="geometry">
                        <mxPoint x="11.477864376269281" y="-24.687669529663935" as="sourcePoint"/>
                        <mxPoint x="39.93148411760558" y="10.45341811969638" as="targetPoint"/>
                    </mxGeometry>
                </mxCell>
                <mxCell id="304" style="edgeStyle=orthogonalEdgeStyle;jumpStyle=none;jumpSize=6;orthogonalLoop=1;jettySize=auto;html=1;entryX=0;entryY=0.5;entryDx=0;entryDy=0;startArrow=none;startFill=0;endArrow=classic;endFill=1;startSize=1;endSize=1;strokeColor=#000000;strokeWidth=3;rounded=1;exitX=0.5;exitY=0;exitDx=0;exitDy=0;" parent="733" source="313" target="301" edge="1">
                    <mxGeometry as="geometry">
                        <Array as="points">
                            <mxPoint x="44" y="27"/>
                            <mxPoint x="44" y="41"/>
                            <mxPoint x="10" y="41"/>
                            <mxPoint x="10" y="87"/>
                        </Array>
                    </mxGeometry>
                </mxCell>
                <mxCell id="309" value="" style="rounded=0;whiteSpace=wrap;html=1;glass=0;strokeColor=#000000;strokeWidth=4;fillColor=#FFD966;" parent="733" vertex="1">
                    <mxGeometry x="100" y="49" width="20" height="36" as="geometry"/>
                </mxCell>
                <mxCell id="310" value="" style="endArrow=none;html=1;rounded=0;startSize=1;endSize=1;strokeColor=#000000;strokeWidth=4;jumpStyle=none;jumpSize=6;" parent="733" edge="1">
                    <mxGeometry width="50" height="50" as="geometry">
                        <mxPoint x="99.99999999999818" y="84.99999999999977" as="sourcePoint"/>
                        <mxPoint x="109.99999999999818" y="74.49999999999977" as="targetPoint"/>
                    </mxGeometry>
                </mxCell>
                <mxCell id="311" value="" style="endArrow=none;html=1;rounded=0;startSize=1;endSize=1;strokeColor=#000000;strokeWidth=4;jumpStyle=none;jumpSize=6;" parent="733" edge="1">
                    <mxGeometry width="50" height="50" as="geometry">
                        <mxPoint x="108.85999999999876" y="74.99999999999977" as="sourcePoint"/>
                        <mxPoint x="118.85999999999876" y="84.99999999999977" as="targetPoint"/>
                    </mxGeometry>
                </mxCell>
                <mxCell id="312" style="edgeStyle=orthogonalEdgeStyle;orthogonalLoop=1;jettySize=auto;html=1;fontSize=12;fontColor=#000000;strokeWidth=2;endSize=0;rounded=1;fillColor=#f8cecc;exitX=1;exitY=0.5;exitDx=0;exitDy=0;" parent="733" source="301" edge="1">
                    <mxGeometry as="geometry">
                        <Array as="points">
                            <mxPoint x="80" y="87"/>
                            <mxPoint x="80" y="58"/>
                        </Array>
                        <mxPoint x="63.20999999999913" y="102.25" as="sourcePoint"/>
                        <mxPoint x="100" y="58" as="targetPoint"/>
                    </mxGeometry>
                </mxCell>
                <mxCell id="313" value="" style="whiteSpace=wrap;html=1;aspect=fixed;fillColor=#dae8fc;strokeColor=#000000;strokeWidth=4;" parent="733" vertex="1">
                    <mxGeometry x="41.25" y="26.999999999999773" width="27.5" height="27.5" as="geometry"/>
                </mxCell>
                <mxCell id="368" value="" style="group;rotation=-90;" parent="733" vertex="1" connectable="0">
                    <mxGeometry x="305" y="234.08000000000004" width="60" height="60" as="geometry"/>
                </mxCell>
                <mxCell id="369" value="" style="ellipse;whiteSpace=wrap;html=1;aspect=fixed;fillColor=#e1d5e7;strokeColor=#000000;strokeWidth=4;rotation=-90;" parent="368" vertex="1">
                    <mxGeometry y="5" width="60" height="60" as="geometry"/>
                </mxCell>
                <mxCell id="370" value="" style="endArrow=none;html=1;rounded=0;strokeColor=#000000;entryX=0.5;entryY=0;entryDx=0;entryDy=0;exitX=0.5;exitY=1;exitDx=0;exitDy=0;strokeWidth=4;" parent="368" source="369" target="369" edge="1">
                    <mxGeometry width="50" height="50" relative="1" as="geometry">
                        <mxPoint x="-56" y="19" as="sourcePoint"/>
                        <mxPoint x="-131" y="-56" as="targetPoint"/>
                    </mxGeometry>
                </mxCell>
                <mxCell id="371" value="" style="endArrow=none;html=1;rounded=0;strokeColor=#000000;entryX=0;entryY=0.5;entryDx=0;entryDy=0;exitX=1;exitY=0.5;exitDx=0;exitDy=0;strokeWidth=4;" parent="368" source="369" target="369" edge="1">
                    <mxGeometry width="50" height="50" relative="1" as="geometry">
                        <mxPoint x="-206" y="-56" as="sourcePoint"/>
                        <mxPoint x="-296" y="-56" as="targetPoint"/>
                    </mxGeometry>
                </mxCell>
                <mxCell id="384" style="edgeStyle=none;html=1;entryX=0.137;entryY=0.226;entryDx=0;entryDy=0;entryPerimeter=0;startArrow=none;startFill=0;endArrow=classic;endFill=1;strokeWidth=5;exitX=1;exitY=1;exitDx=0;exitDy=0;strokeColor=#FF0000;" parent="733" source="409" target="369" edge="1">
                    <mxGeometry x="37" y="317.00000000000006" as="geometry">
                        <mxPoint x="261.16020555210616" y="442.72679796505304" as="sourcePoint"/>
                    </mxGeometry>
                </mxCell>
                <mxCell id="385" style="edgeStyle=none;html=1;entryX=1;entryY=0;entryDx=0;entryDy=0;startArrow=none;startFill=0;endArrow=classic;endFill=1;strokeWidth=5;exitX=0;exitY=1;exitDx=0;exitDy=0;strokeColor=#FF0000;" parent="733" source="413" target="369" edge="1">
                    <mxGeometry x="37" y="317.00000000000006" as="geometry">
                        <mxPoint x="258.5879632878905" y="180.85385421782905" as="sourcePoint"/>
                    </mxGeometry>
                </mxCell>
                <mxCell id="408" value="" style="group;rotation=-90;" parent="733" vertex="1" connectable="0">
                    <mxGeometry x="210" y="373.9100000000001" width="60" height="60" as="geometry"/>
                </mxCell>
                <mxCell id="409" value="" style="ellipse;whiteSpace=wrap;html=1;aspect=fixed;fillColor=#e1d5e7;strokeColor=#000000;strokeWidth=4;rotation=-90;" parent="408" vertex="1">
                    <mxGeometry y="5" width="60" height="60" as="geometry"/>
                </mxCell>
                <mxCell id="410" value="" style="endArrow=none;html=1;rounded=0;strokeColor=#000000;entryX=0.5;entryY=0;entryDx=0;entryDy=0;exitX=0.5;exitY=1;exitDx=0;exitDy=0;strokeWidth=4;" parent="408" source="409" target="409" edge="1">
                    <mxGeometry width="50" height="50" relative="1" as="geometry">
                        <mxPoint x="-56" y="19" as="sourcePoint"/>
                        <mxPoint x="-131" y="-56" as="targetPoint"/>
                    </mxGeometry>
                </mxCell>
                <mxCell id="411" value="" style="endArrow=none;html=1;rounded=0;strokeColor=#000000;entryX=0;entryY=0.5;entryDx=0;entryDy=0;exitX=1;exitY=0.5;exitDx=0;exitDy=0;strokeWidth=4;" parent="408" source="409" target="409" edge="1">
                    <mxGeometry width="50" height="50" relative="1" as="geometry">
                        <mxPoint x="-206" y="-56" as="sourcePoint"/>
                        <mxPoint x="-296" y="-56" as="targetPoint"/>
                    </mxGeometry>
                </mxCell>
                <mxCell id="412" value="" style="group;rotation=-90;" parent="733" vertex="1" connectable="0">
                    <mxGeometry x="210" y="107.00000000000011" width="60" height="60" as="geometry"/>
                </mxCell>
                <mxCell id="413" value="" style="ellipse;whiteSpace=wrap;html=1;aspect=fixed;fillColor=#e1d5e7;strokeColor=#000000;strokeWidth=4;rotation=-90;" parent="412" vertex="1">
                    <mxGeometry y="5" width="60" height="60" as="geometry"/>
                </mxCell>
                <mxCell id="414" value="" style="endArrow=none;html=1;rounded=0;strokeColor=#000000;entryX=0.5;entryY=0;entryDx=0;entryDy=0;exitX=0.5;exitY=1;exitDx=0;exitDy=0;strokeWidth=4;" parent="412" source="413" target="413" edge="1">
                    <mxGeometry width="50" height="50" relative="1" as="geometry">
                        <mxPoint x="-56" y="19" as="sourcePoint"/>
                        <mxPoint x="-131" y="-56" as="targetPoint"/>
                    </mxGeometry>
                </mxCell>
                <mxCell id="415" value="" style="endArrow=none;html=1;rounded=0;strokeColor=#000000;entryX=0;entryY=0.5;entryDx=0;entryDy=0;exitX=1;exitY=0.5;exitDx=0;exitDy=0;strokeWidth=4;" parent="412" source="413" target="413" edge="1">
                    <mxGeometry width="50" height="50" relative="1" as="geometry">
                        <mxPoint x="-206" y="-56" as="sourcePoint"/>
                        <mxPoint x="-296" y="-56" as="targetPoint"/>
                    </mxGeometry>
                </mxCell>
                <mxCell id="465" style="rounded=1;html=1;entryX=1;entryY=0;entryDx=0;entryDy=0;fontSize=20;startArrow=none;startFill=0;endArrow=classic;endFill=1;strokeWidth=5;verticalAlign=middle;strokeColor=#FF0000;" parent="733" source="300" target="413" edge="1">
                    <mxGeometry as="geometry"/>
                </mxCell>
                <mxCell id="466" style="edgeStyle=none;rounded=1;html=1;entryX=0;entryY=0;entryDx=0;entryDy=0;fontSize=20;startArrow=none;startFill=0;endArrow=classic;endFill=1;strokeWidth=5;verticalAlign=middle;strokeColor=#FF0000;" parent="733" source="416" target="413" edge="1">
                    <mxGeometry as="geometry"/>
                </mxCell>
                <mxCell id="416" value="" style="ellipse;whiteSpace=wrap;html=1;aspect=fixed;fontSize=30;strokeColor=#000000;fillColor=#FFD966;opacity=80;" parent="733" vertex="1">
                    <mxGeometry y="135" width="135" height="135" as="geometry"/>
                </mxCell>
                <mxCell id="417" value="" style="ellipse;whiteSpace=wrap;html=1;aspect=fixed;fillColor=#67AB9F;strokeWidth=4;strokeColor=#000000;" parent="733" vertex="1">
                    <mxGeometry x="35" y="201.99999999999977" width="40" height="40" as="geometry"/>
                </mxCell>
                <mxCell id="418" value="" style="endArrow=none;html=1;rounded=0;strokeColor=#000000;strokeWidth=4;exitX=0;exitY=0;exitDx=0;exitDy=0;entryX=1;entryY=1;entryDx=0;entryDy=0;" parent="733" source="417" target="417" edge="1">
                    <mxGeometry width="50" height="50" as="geometry">
                        <mxPoint x="55.61999999999989" y="165.48999999999978" as="sourcePoint"/>
                        <mxPoint x="80.61999999999989" y="134.23999999999978" as="targetPoint"/>
                    </mxGeometry>
                </mxCell>
                <mxCell id="419" value="" style="endArrow=none;html=1;rounded=0;strokeColor=#000000;strokeWidth=4;exitX=0;exitY=1;exitDx=0;exitDy=0;entryX=1;entryY=0;entryDx=0;entryDy=0;" parent="733" source="417" target="417" edge="1">
                    <mxGeometry width="50" height="50" as="geometry">
                        <mxPoint x="11.477864376269281" y="110.31233047033606" as="sourcePoint"/>
                        <mxPoint x="39.93148411760558" y="145.45341811969638" as="targetPoint"/>
                    </mxGeometry>
                </mxCell>
                <mxCell id="420" style="edgeStyle=orthogonalEdgeStyle;jumpStyle=none;jumpSize=6;orthogonalLoop=1;jettySize=auto;html=1;entryX=0;entryY=0.5;entryDx=0;entryDy=0;startArrow=none;startFill=0;endArrow=classic;endFill=1;startSize=1;endSize=1;strokeColor=#000000;strokeWidth=3;rounded=1;exitX=0.5;exitY=0;exitDx=0;exitDy=0;" parent="733" source="425" target="417" edge="1">
                    <mxGeometry as="geometry">
                        <Array as="points">
                            <mxPoint x="44" y="162"/>
                            <mxPoint x="44" y="176"/>
                            <mxPoint x="10" y="176"/>
                            <mxPoint x="10" y="222"/>
                        </Array>
                    </mxGeometry>
                </mxCell>
                <mxCell id="421" value="" style="rounded=0;whiteSpace=wrap;html=1;glass=0;strokeColor=#000000;strokeWidth=4;fillColor=#FFD966;" parent="733" vertex="1">
                    <mxGeometry x="100" y="184" width="20" height="36" as="geometry"/>
                </mxCell>
                <mxCell id="422" value="" style="endArrow=none;html=1;rounded=0;startSize=1;endSize=1;strokeColor=#000000;strokeWidth=4;jumpStyle=none;jumpSize=6;" parent="733" edge="1">
                    <mxGeometry width="50" height="50" as="geometry">
                        <mxPoint x="99.99999999999818" y="219.99999999999977" as="sourcePoint"/>
                        <mxPoint x="109.99999999999818" y="209.49999999999977" as="targetPoint"/>
                    </mxGeometry>
                </mxCell>
                <mxCell id="423" value="" style="endArrow=none;html=1;rounded=0;startSize=1;endSize=1;strokeColor=#000000;strokeWidth=4;jumpStyle=none;jumpSize=6;" parent="733" edge="1">
                    <mxGeometry width="50" height="50" as="geometry">
                        <mxPoint x="108.85999999999876" y="209.99999999999977" as="sourcePoint"/>
                        <mxPoint x="118.85999999999876" y="219.99999999999977" as="targetPoint"/>
                    </mxGeometry>
                </mxCell>
                <mxCell id="424" style="edgeStyle=orthogonalEdgeStyle;orthogonalLoop=1;jettySize=auto;html=1;fontSize=12;fontColor=#000000;strokeWidth=2;endSize=0;rounded=1;fillColor=#f8cecc;exitX=1;exitY=0.5;exitDx=0;exitDy=0;" parent="733" source="417" edge="1">
                    <mxGeometry as="geometry">
                        <Array as="points">
                            <mxPoint x="80" y="222"/>
                            <mxPoint x="80" y="193"/>
                        </Array>
                        <mxPoint x="63.20999999999913" y="237.25" as="sourcePoint"/>
                        <mxPoint x="100" y="193" as="targetPoint"/>
                    </mxGeometry>
                </mxCell>
                <mxCell id="425" value="" style="whiteSpace=wrap;html=1;aspect=fixed;fillColor=#dae8fc;strokeColor=#000000;strokeWidth=4;" parent="733" vertex="1">
                    <mxGeometry x="41.25" y="161.99999999999977" width="27.5" height="27.5" as="geometry"/>
                </mxCell>
                <mxCell id="467" style="edgeStyle=none;rounded=1;html=1;fontSize=20;startArrow=none;startFill=0;endArrow=classic;endFill=1;strokeWidth=5;verticalAlign=middle;strokeColor=#FF0000;" parent="733" source="445" target="409" edge="1">
                    <mxGeometry as="geometry"/>
                </mxCell>
                <mxCell id="445" value="" style="ellipse;whiteSpace=wrap;html=1;aspect=fixed;fontSize=30;strokeColor=#000000;fillColor=#FFD966;opacity=80;" parent="733" vertex="1">
                    <mxGeometry y="270" width="135" height="135" as="geometry"/>
                </mxCell>
                <mxCell id="446" value="" style="ellipse;whiteSpace=wrap;html=1;aspect=fixed;fillColor=#67AB9F;strokeWidth=4;strokeColor=#000000;" parent="733" vertex="1">
                    <mxGeometry x="35" y="336.9999999999998" width="40" height="40" as="geometry"/>
                </mxCell>
                <mxCell id="447" value="" style="endArrow=none;html=1;rounded=0;strokeColor=#000000;strokeWidth=4;exitX=0;exitY=0;exitDx=0;exitDy=0;entryX=1;entryY=1;entryDx=0;entryDy=0;" parent="733" source="446" target="446" edge="1">
                    <mxGeometry width="50" height="50" as="geometry">
                        <mxPoint x="55.61999999999989" y="300.4899999999998" as="sourcePoint"/>
                        <mxPoint x="80.61999999999989" y="269.2399999999998" as="targetPoint"/>
                    </mxGeometry>
                </mxCell>
                <mxCell id="448" value="" style="endArrow=none;html=1;rounded=0;strokeColor=#000000;strokeWidth=4;exitX=0;exitY=1;exitDx=0;exitDy=0;entryX=1;entryY=0;entryDx=0;entryDy=0;" parent="733" source="446" target="446" edge="1">
                    <mxGeometry width="50" height="50" as="geometry">
                        <mxPoint x="11.477864376269281" y="245.31233047033606" as="sourcePoint"/>
                        <mxPoint x="39.93148411760558" y="280.4534181196964" as="targetPoint"/>
                    </mxGeometry>
                </mxCell>
                <mxCell id="449" style="edgeStyle=orthogonalEdgeStyle;jumpStyle=none;jumpSize=6;orthogonalLoop=1;jettySize=auto;html=1;entryX=0;entryY=0.5;entryDx=0;entryDy=0;startArrow=none;startFill=0;endArrow=classic;endFill=1;startSize=1;endSize=1;strokeColor=#000000;strokeWidth=3;rounded=1;exitX=0.5;exitY=0;exitDx=0;exitDy=0;" parent="733" source="454" target="446" edge="1">
                    <mxGeometry as="geometry">
                        <Array as="points">
                            <mxPoint x="44" y="297"/>
                            <mxPoint x="44" y="311"/>
                            <mxPoint x="10" y="311"/>
                            <mxPoint x="10" y="357"/>
                        </Array>
                    </mxGeometry>
                </mxCell>
                <mxCell id="450" value="" style="rounded=0;whiteSpace=wrap;html=1;glass=0;strokeColor=#000000;strokeWidth=4;fillColor=#FFD966;" parent="733" vertex="1">
                    <mxGeometry x="100" y="319" width="20" height="36" as="geometry"/>
                </mxCell>
                <mxCell id="451" value="" style="endArrow=none;html=1;rounded=0;startSize=1;endSize=1;strokeColor=#000000;strokeWidth=4;jumpStyle=none;jumpSize=6;" parent="733" edge="1">
                    <mxGeometry width="50" height="50" as="geometry">
                        <mxPoint x="99.99999999999818" y="354.9999999999998" as="sourcePoint"/>
                        <mxPoint x="109.99999999999818" y="344.4999999999998" as="targetPoint"/>
                    </mxGeometry>
                </mxCell>
                <mxCell id="452" value="" style="endArrow=none;html=1;rounded=0;startSize=1;endSize=1;strokeColor=#000000;strokeWidth=4;jumpStyle=none;jumpSize=6;" parent="733" edge="1">
                    <mxGeometry width="50" height="50" as="geometry">
                        <mxPoint x="108.85999999999876" y="344.9999999999998" as="sourcePoint"/>
                        <mxPoint x="118.85999999999876" y="354.9999999999998" as="targetPoint"/>
                    </mxGeometry>
                </mxCell>
                <mxCell id="453" style="edgeStyle=orthogonalEdgeStyle;orthogonalLoop=1;jettySize=auto;html=1;fontSize=12;fontColor=#000000;strokeWidth=2;endSize=0;rounded=1;fillColor=#f8cecc;exitX=1;exitY=0.5;exitDx=0;exitDy=0;" parent="733" source="446" edge="1">
                    <mxGeometry as="geometry">
                        <Array as="points">
                            <mxPoint x="80" y="357"/>
                            <mxPoint x="80" y="328"/>
                        </Array>
                        <mxPoint x="63.20999999999913" y="372.25" as="sourcePoint"/>
                        <mxPoint x="100" y="328" as="targetPoint"/>
                    </mxGeometry>
                </mxCell>
                <mxCell id="454" value="" style="whiteSpace=wrap;html=1;aspect=fixed;fillColor=#dae8fc;strokeColor=#000000;strokeWidth=4;" parent="733" vertex="1">
                    <mxGeometry x="41.25" y="296.9999999999998" width="27.5" height="27.5" as="geometry"/>
                </mxCell>
                <mxCell id="468" style="edgeStyle=none;rounded=1;html=1;entryX=0;entryY=0;entryDx=0;entryDy=0;fontSize=20;startArrow=none;startFill=0;endArrow=classic;endFill=1;strokeWidth=5;verticalAlign=middle;strokeColor=#FF0000;" parent="733" source="455" target="409" edge="1">
                    <mxGeometry as="geometry"/>
                </mxCell>
                <mxCell id="455" value="" style="ellipse;whiteSpace=wrap;html=1;aspect=fixed;fontSize=30;strokeColor=#000000;fillColor=#FFD966;opacity=80;" parent="733" vertex="1">
                    <mxGeometry y="405" width="135" height="135" as="geometry"/>
                </mxCell>
                <mxCell id="456" value="" style="ellipse;whiteSpace=wrap;html=1;aspect=fixed;fillColor=#67AB9F;strokeWidth=4;strokeColor=#000000;" parent="733" vertex="1">
                    <mxGeometry x="35" y="471.9999999999998" width="40" height="40" as="geometry"/>
                </mxCell>
                <mxCell id="457" value="" style="endArrow=none;html=1;rounded=0;strokeColor=#000000;strokeWidth=4;exitX=0;exitY=0;exitDx=0;exitDy=0;entryX=1;entryY=1;entryDx=0;entryDy=0;" parent="733" source="456" target="456" edge="1">
                    <mxGeometry width="50" height="50" as="geometry">
                        <mxPoint x="55.61999999999989" y="435.4899999999998" as="sourcePoint"/>
                        <mxPoint x="80.61999999999989" y="404.2399999999998" as="targetPoint"/>
                    </mxGeometry>
                </mxCell>
                <mxCell id="458" value="" style="endArrow=none;html=1;rounded=0;strokeColor=#000000;strokeWidth=4;exitX=0;exitY=1;exitDx=0;exitDy=0;entryX=1;entryY=0;entryDx=0;entryDy=0;" parent="733" source="456" target="456" edge="1">
                    <mxGeometry width="50" height="50" as="geometry">
                        <mxPoint x="11.477864376269281" y="380.31233047033606" as="sourcePoint"/>
                        <mxPoint x="39.93148411760558" y="415.4534181196964" as="targetPoint"/>
                    </mxGeometry>
                </mxCell>
                <mxCell id="459" style="edgeStyle=orthogonalEdgeStyle;jumpStyle=none;jumpSize=6;orthogonalLoop=1;jettySize=auto;html=1;entryX=0;entryY=0.5;entryDx=0;entryDy=0;startArrow=none;startFill=0;endArrow=classic;endFill=1;startSize=1;endSize=1;strokeColor=#000000;strokeWidth=3;rounded=1;exitX=0.5;exitY=0;exitDx=0;exitDy=0;" parent="733" source="464" target="456" edge="1">
                    <mxGeometry as="geometry">
                        <Array as="points">
                            <mxPoint x="44" y="432"/>
                            <mxPoint x="44" y="446"/>
                            <mxPoint x="10" y="446"/>
                            <mxPoint x="10" y="492"/>
                        </Array>
                    </mxGeometry>
                </mxCell>
                <mxCell id="460" value="" style="rounded=0;whiteSpace=wrap;html=1;glass=0;strokeColor=#000000;strokeWidth=4;fillColor=#FFD966;" parent="733" vertex="1">
                    <mxGeometry x="100" y="454" width="20" height="36" as="geometry"/>
                </mxCell>
                <mxCell id="461" value="" style="endArrow=none;html=1;rounded=0;startSize=1;endSize=1;strokeColor=#000000;strokeWidth=4;jumpStyle=none;jumpSize=6;" parent="733" edge="1">
                    <mxGeometry width="50" height="50" as="geometry">
                        <mxPoint x="99.99999999999818" y="489.9999999999998" as="sourcePoint"/>
                        <mxPoint x="109.99999999999818" y="479.4999999999998" as="targetPoint"/>
                    </mxGeometry>
                </mxCell>
                <mxCell id="462" value="" style="endArrow=none;html=1;rounded=0;startSize=1;endSize=1;strokeColor=#000000;strokeWidth=4;jumpStyle=none;jumpSize=6;" parent="733" edge="1">
                    <mxGeometry width="50" height="50" as="geometry">
                        <mxPoint x="108.85999999999876" y="479.9999999999998" as="sourcePoint"/>
                        <mxPoint x="118.85999999999876" y="489.9999999999998" as="targetPoint"/>
                    </mxGeometry>
                </mxCell>
                <mxCell id="463" style="edgeStyle=orthogonalEdgeStyle;orthogonalLoop=1;jettySize=auto;html=1;fontSize=12;fontColor=#000000;strokeWidth=2;endSize=0;rounded=1;fillColor=#f8cecc;exitX=1;exitY=0.5;exitDx=0;exitDy=0;" parent="733" source="456" edge="1">
                    <mxGeometry as="geometry">
                        <Array as="points">
                            <mxPoint x="80" y="492"/>
                            <mxPoint x="80" y="463"/>
                        </Array>
                        <mxPoint x="63.20999999999913" y="507.25" as="sourcePoint"/>
                        <mxPoint x="100" y="463" as="targetPoint"/>
                    </mxGeometry>
                </mxCell>
                <mxCell id="464" value="" style="whiteSpace=wrap;html=1;aspect=fixed;fillColor=#dae8fc;strokeColor=#000000;strokeWidth=4;" parent="733" vertex="1">
                    <mxGeometry x="41.25" y="431.9999999999998" width="27.5" height="27.5" as="geometry"/>
                </mxCell>
                <mxCell id="740" value="Spatial" style="rounded=0;whiteSpace=wrap;html=1;fontSize=60;strokeColor=#000000;strokeWidth=5;fillColor=none;verticalAlign=middle;fontStyle=1;horizontal=1;labelBorderColor=none;" vertex="1" parent="1">
                    <mxGeometry x="4670" y="-710" width="1390" height="170" as="geometry"/>
                </mxCell>
                <mxCell id="741" value="Temporal" style="rounded=0;whiteSpace=wrap;html=1;fontSize=60;strokeColor=#000000;strokeWidth=5;fillColor=none;verticalAlign=middle;fontStyle=1;horizontal=1;labelBorderColor=none;" vertex="1" parent="1">
                    <mxGeometry x="6060" y="-710" width="700" height="170" as="geometry"/>
                </mxCell>
                <mxCell id="1woVSW_QeIxlfaoUP5wK-732" value="&lt;font style=&quot;font-size: 60px&quot;&gt;&lt;b&gt;Reduce&amp;amp;Fwd (Sys. Array)&lt;/b&gt;&lt;/font&gt;" style="text;html=1;strokeColor=none;fillColor=none;align=center;verticalAlign=middle;whiteSpace=wrap;rounded=0;fontSize=50;" parent="1" vertex="1">
                    <mxGeometry x="5443.21" y="635" width="500" height="75" as="geometry"/>
                </mxCell>
                <mxCell id="612" value="" style="ellipse;whiteSpace=wrap;html=1;aspect=fixed;fontSize=30;strokeColor=#000000;fillColor=#FFD966;opacity=80;" parent="1" vertex="1">
                    <mxGeometry x="5470" y="290.00000000000006" width="150" height="150" as="geometry"/>
                </mxCell>
                <mxCell id="613" value="" style="ellipse;whiteSpace=wrap;html=1;aspect=fixed;fillColor=#67AB9F;strokeWidth=4;strokeColor=#000000;" parent="1" vertex="1">
                    <mxGeometry x="5529.84" y="304.73999999999984" width="40" height="40" as="geometry"/>
                </mxCell>
                <mxCell id="614" value="" style="endArrow=none;html=1;rounded=0;strokeColor=#000000;strokeWidth=4;exitX=0;exitY=0;exitDx=0;exitDy=0;entryX=1;entryY=1;entryDx=0;entryDy=0;" parent="1" source="613" target="613" edge="1">
                    <mxGeometry x="5470" y="290.00000000000006" width="50" height="50" as="geometry">
                        <mxPoint x="5545.62" y="336.48999999999984" as="sourcePoint"/>
                        <mxPoint x="5570.62" y="305.23999999999984" as="targetPoint"/>
                    </mxGeometry>
                </mxCell>
                <mxCell id="615" value="" style="endArrow=none;html=1;rounded=0;strokeColor=#000000;strokeWidth=4;exitX=0;exitY=1;exitDx=0;exitDy=0;entryX=1;entryY=0;entryDx=0;entryDy=0;" parent="1" source="613" target="613" edge="1">
                    <mxGeometry x="5470" y="290.00000000000006" width="50" height="50" as="geometry">
                        <mxPoint x="5501.477864376269" y="281.3123304703361" as="sourcePoint"/>
                        <mxPoint x="5529.931484117606" y="316.45341811969644" as="targetPoint"/>
                    </mxGeometry>
                </mxCell>
                <mxCell id="616" style="edgeStyle=orthogonalEdgeStyle;jumpStyle=none;jumpSize=6;orthogonalLoop=1;jettySize=auto;html=1;entryX=0;entryY=0.5;entryDx=0;entryDy=0;startArrow=none;startFill=0;endArrow=classic;endFill=1;startSize=1;endSize=1;strokeColor=#000000;strokeWidth=3;rounded=1;exitX=0.5;exitY=0;exitDx=0;exitDy=0;" parent="1" source="625" target="613" edge="1">
                    <mxGeometry x="5470" y="290.00000000000006" as="geometry">
                        <Array as="points">
                            <mxPoint x="5506.21" y="324.83"/>
                            <mxPoint x="5530.21" y="324.83"/>
                        </Array>
                    </mxGeometry>
                </mxCell>
                <mxCell id="617" value="" style="ellipse;whiteSpace=wrap;html=1;aspect=fixed;fillColor=#e1d5e7;strokeColor=#000000;strokeWidth=4;" parent="1" vertex="1">
                    <mxGeometry x="5513.209999999999" y="388.25000000000006" width="40" height="40" as="geometry"/>
                </mxCell>
                <mxCell id="618" value="" style="endArrow=none;html=1;rounded=0;strokeColor=#000000;entryX=0.5;entryY=0;entryDx=0;entryDy=0;exitX=0.5;exitY=1;exitDx=0;exitDy=0;strokeWidth=4;" parent="1" source="617" target="617" edge="1">
                    <mxGeometry x="5470" y="290.00000000000006" width="50" height="50" as="geometry">
                        <mxPoint x="5540.62" y="351.23999999999984" as="sourcePoint"/>
                        <mxPoint x="5590.62" y="301.23999999999984" as="targetPoint"/>
                    </mxGeometry>
                </mxCell>
                <mxCell id="619" style="edgeStyle=orthogonalEdgeStyle;rounded=1;jumpStyle=none;jumpSize=6;orthogonalLoop=1;jettySize=auto;html=1;entryX=0.5;entryY=0;entryDx=0;entryDy=0;startArrow=none;startFill=0;endArrow=classic;endFill=1;startSize=1;endSize=1;strokeColor=#000000;strokeWidth=4;" parent="1" source="613" target="617" edge="1">
                    <mxGeometry x="5470" y="290.00000000000006" as="geometry"/>
                </mxCell>
                <mxCell id="620" value="" style="endArrow=none;html=1;rounded=0;strokeColor=#000000;entryX=0;entryY=0.5;entryDx=0;entryDy=0;exitX=1;exitY=0.5;exitDx=0;exitDy=0;strokeWidth=4;" parent="1" source="617" target="617" edge="1">
                    <mxGeometry x="5470" y="290.00000000000006" width="50" height="50" as="geometry">
                        <mxPoint x="5590.62" y="251.23999999999984" as="sourcePoint"/>
                        <mxPoint x="5590.62" y="191.23999999999984" as="targetPoint"/>
                    </mxGeometry>
                </mxCell>
                <mxCell id="621" value="" style="rounded=0;whiteSpace=wrap;html=1;glass=0;strokeColor=#000000;strokeWidth=4;fillColor=#FFD966;" parent="1" vertex="1">
                    <mxGeometry x="5576.73" y="352.25000000000006" width="20" height="36" as="geometry"/>
                </mxCell>
                <mxCell id="622" value="" style="endArrow=none;html=1;rounded=0;startSize=1;endSize=1;strokeColor=#000000;strokeWidth=4;jumpStyle=none;jumpSize=6;" parent="1" edge="1">
                    <mxGeometry x="5470" y="290.00000000000006" width="50" height="50" as="geometry">
                        <mxPoint x="5576.729999999998" y="388.24999999999983" as="sourcePoint"/>
                        <mxPoint x="5586.729999999998" y="377.74999999999983" as="targetPoint"/>
                    </mxGeometry>
                </mxCell>
                <mxCell id="623" value="" style="endArrow=none;html=1;rounded=0;startSize=1;endSize=1;strokeColor=#000000;strokeWidth=4;jumpStyle=none;jumpSize=6;" parent="1" edge="1">
                    <mxGeometry x="5470" y="290.00000000000006" width="50" height="50" as="geometry">
                        <mxPoint x="5585.589999999998" y="378.24999999999983" as="sourcePoint"/>
                        <mxPoint x="5595.589999999998" y="388.24999999999983" as="targetPoint"/>
                    </mxGeometry>
                </mxCell>
                <mxCell id="624" style="edgeStyle=orthogonalEdgeStyle;orthogonalLoop=1;jettySize=auto;html=1;entryX=0;entryY=0.25;entryDx=0;entryDy=0;fontSize=12;fontColor=#000000;strokeWidth=2;endSize=0;rounded=1;fillColor=#f8cecc;exitX=1;exitY=0.5;exitDx=0;exitDy=0;" parent="1" source="617" target="621" edge="1">
                    <mxGeometry x="5470" y="290.00000000000006" as="geometry">
                        <Array as="points">
                            <mxPoint x="5562" y="408.00000000000006"/>
                            <mxPoint x="5562" y="361.00000000000006"/>
                        </Array>
                        <mxPoint x="5596.715" y="381.9869037266754" as="sourcePoint"/>
                    </mxGeometry>
                </mxCell>
                <mxCell id="625" value="" style="whiteSpace=wrap;html=1;aspect=fixed;fillColor=#dae8fc;strokeColor=#000000;strokeWidth=4;" parent="1" vertex="1">
                    <mxGeometry x="5492.17" y="345.73999999999984" width="27.5" height="27.5" as="geometry"/>
                </mxCell>
                <mxCell id="626" value="" style="ellipse;whiteSpace=wrap;html=1;aspect=fixed;fontSize=30;strokeColor=#000000;fillColor=#FFD966;opacity=80;" parent="1" vertex="1">
                    <mxGeometry x="5630" y="290.00000000000006" width="150" height="150" as="geometry"/>
                </mxCell>
                <mxCell id="627" value="" style="ellipse;whiteSpace=wrap;html=1;aspect=fixed;fillColor=#67AB9F;strokeWidth=4;strokeColor=#000000;" parent="1" vertex="1">
                    <mxGeometry x="5689.84" y="304.73999999999984" width="40" height="40" as="geometry"/>
                </mxCell>
                <mxCell id="628" value="" style="endArrow=none;html=1;rounded=0;strokeColor=#000000;strokeWidth=4;exitX=0;exitY=0;exitDx=0;exitDy=0;entryX=1;entryY=1;entryDx=0;entryDy=0;" parent="1" source="627" target="627" edge="1">
                    <mxGeometry x="5470" y="290.00000000000006" width="50" height="50" as="geometry">
                        <mxPoint x="5705.62" y="336.48999999999984" as="sourcePoint"/>
                        <mxPoint x="5730.62" y="305.23999999999984" as="targetPoint"/>
                    </mxGeometry>
                </mxCell>
                <mxCell id="629" value="" style="endArrow=none;html=1;rounded=0;strokeColor=#000000;strokeWidth=4;exitX=0;exitY=1;exitDx=0;exitDy=0;entryX=1;entryY=0;entryDx=0;entryDy=0;" parent="1" source="627" target="627" edge="1">
                    <mxGeometry x="5470" y="290.00000000000006" width="50" height="50" as="geometry">
                        <mxPoint x="5661.477864376269" y="281.3123304703361" as="sourcePoint"/>
                        <mxPoint x="5689.931484117606" y="316.45341811969644" as="targetPoint"/>
                    </mxGeometry>
                </mxCell>
                <mxCell id="630" style="edgeStyle=orthogonalEdgeStyle;jumpStyle=none;jumpSize=6;orthogonalLoop=1;jettySize=auto;html=1;entryX=0;entryY=0.5;entryDx=0;entryDy=0;startArrow=none;startFill=0;endArrow=classic;endFill=1;startSize=1;endSize=1;strokeColor=#000000;strokeWidth=3;rounded=1;exitX=0.5;exitY=0;exitDx=0;exitDy=0;" parent="1" source="639" target="627" edge="1">
                    <mxGeometry x="5470" y="290.00000000000006" as="geometry">
                        <Array as="points">
                            <mxPoint x="5666.21" y="324.83"/>
                            <mxPoint x="5690.21" y="324.83"/>
                        </Array>
                    </mxGeometry>
                </mxCell>
                <mxCell id="631" value="" style="ellipse;whiteSpace=wrap;html=1;aspect=fixed;fillColor=#e1d5e7;strokeColor=#000000;strokeWidth=4;" parent="1" vertex="1">
                    <mxGeometry x="5673.209999999999" y="388.25000000000006" width="40" height="40" as="geometry"/>
                </mxCell>
                <mxCell id="632" value="" style="endArrow=none;html=1;rounded=0;strokeColor=#000000;entryX=0.5;entryY=0;entryDx=0;entryDy=0;exitX=0.5;exitY=1;exitDx=0;exitDy=0;strokeWidth=4;" parent="1" source="631" target="631" edge="1">
                    <mxGeometry x="5470" y="290.00000000000006" width="50" height="50" as="geometry">
                        <mxPoint x="5700.62" y="351.23999999999984" as="sourcePoint"/>
                        <mxPoint x="5750.62" y="301.23999999999984" as="targetPoint"/>
                    </mxGeometry>
                </mxCell>
                <mxCell id="633" style="edgeStyle=orthogonalEdgeStyle;rounded=1;jumpStyle=none;jumpSize=6;orthogonalLoop=1;jettySize=auto;html=1;entryX=0.5;entryY=0;entryDx=0;entryDy=0;startArrow=none;startFill=0;endArrow=classic;endFill=1;startSize=1;endSize=1;strokeColor=#000000;strokeWidth=4;" parent="1" source="627" target="631" edge="1">
                    <mxGeometry x="5470" y="290.00000000000006" as="geometry"/>
                </mxCell>
                <mxCell id="634" value="" style="endArrow=none;html=1;rounded=0;strokeColor=#000000;entryX=0;entryY=0.5;entryDx=0;entryDy=0;exitX=1;exitY=0.5;exitDx=0;exitDy=0;strokeWidth=4;" parent="1" source="631" target="631" edge="1">
                    <mxGeometry x="5470" y="290.00000000000006" width="50" height="50" as="geometry">
                        <mxPoint x="5750.62" y="251.23999999999984" as="sourcePoint"/>
                        <mxPoint x="5750.62" y="191.23999999999984" as="targetPoint"/>
                    </mxGeometry>
                </mxCell>
                <mxCell id="635" value="" style="rounded=0;whiteSpace=wrap;html=1;glass=0;strokeColor=#000000;strokeWidth=4;fillColor=#FFD966;" parent="1" vertex="1">
                    <mxGeometry x="5736.73" y="352.25000000000006" width="20" height="36" as="geometry"/>
                </mxCell>
                <mxCell id="636" value="" style="endArrow=none;html=1;rounded=0;startSize=1;endSize=1;strokeColor=#000000;strokeWidth=4;jumpStyle=none;jumpSize=6;" parent="1" edge="1">
                    <mxGeometry x="5470" y="290.00000000000006" width="50" height="50" as="geometry">
                        <mxPoint x="5736.729999999998" y="388.24999999999983" as="sourcePoint"/>
                        <mxPoint x="5746.729999999998" y="377.74999999999983" as="targetPoint"/>
                    </mxGeometry>
                </mxCell>
                <mxCell id="637" value="" style="endArrow=none;html=1;rounded=0;startSize=1;endSize=1;strokeColor=#000000;strokeWidth=4;jumpStyle=none;jumpSize=6;" parent="1" edge="1">
                    <mxGeometry x="5470" y="290.00000000000006" width="50" height="50" as="geometry">
                        <mxPoint x="5745.589999999998" y="378.24999999999983" as="sourcePoint"/>
                        <mxPoint x="5755.589999999998" y="388.24999999999983" as="targetPoint"/>
                    </mxGeometry>
                </mxCell>
                <mxCell id="638" style="edgeStyle=orthogonalEdgeStyle;orthogonalLoop=1;jettySize=auto;html=1;entryX=0;entryY=0.25;entryDx=0;entryDy=0;fontSize=12;fontColor=#000000;strokeWidth=2;endSize=0;rounded=1;fillColor=#f8cecc;exitX=1;exitY=0.5;exitDx=0;exitDy=0;" parent="1" source="631" target="635" edge="1">
                    <mxGeometry x="5470" y="290.00000000000006" as="geometry">
                        <Array as="points">
                            <mxPoint x="5722" y="408.00000000000006"/>
                            <mxPoint x="5722" y="361.00000000000006"/>
                        </Array>
                        <mxPoint x="5756.715" y="381.9869037266754" as="sourcePoint"/>
                    </mxGeometry>
                </mxCell>
                <mxCell id="639" value="" style="whiteSpace=wrap;html=1;aspect=fixed;fillColor=#dae8fc;strokeColor=#000000;strokeWidth=4;" parent="1" vertex="1">
                    <mxGeometry x="5652.17" y="345.73999999999984" width="27.5" height="27.5" as="geometry"/>
                </mxCell>
                <mxCell id="640" value="" style="ellipse;whiteSpace=wrap;html=1;aspect=fixed;fontSize=30;strokeColor=#000000;fillColor=#FFD966;opacity=80;" parent="1" vertex="1">
                    <mxGeometry x="5790" y="290.00000000000006" width="150" height="150" as="geometry"/>
                </mxCell>
                <mxCell id="641" value="" style="ellipse;whiteSpace=wrap;html=1;aspect=fixed;fillColor=#67AB9F;strokeWidth=4;strokeColor=#000000;" parent="1" vertex="1">
                    <mxGeometry x="5849.84" y="304.73999999999984" width="40" height="40" as="geometry"/>
                </mxCell>
                <mxCell id="642" value="" style="endArrow=none;html=1;rounded=0;strokeColor=#000000;strokeWidth=4;exitX=0;exitY=0;exitDx=0;exitDy=0;entryX=1;entryY=1;entryDx=0;entryDy=0;" parent="1" source="641" target="641" edge="1">
                    <mxGeometry x="5470" y="290.00000000000006" width="50" height="50" as="geometry">
                        <mxPoint x="5865.62" y="336.48999999999984" as="sourcePoint"/>
                        <mxPoint x="5890.62" y="305.23999999999984" as="targetPoint"/>
                    </mxGeometry>
                </mxCell>
                <mxCell id="643" value="" style="endArrow=none;html=1;rounded=0;strokeColor=#000000;strokeWidth=4;exitX=0;exitY=1;exitDx=0;exitDy=0;entryX=1;entryY=0;entryDx=0;entryDy=0;" parent="1" source="641" target="641" edge="1">
                    <mxGeometry x="5470" y="290.00000000000006" width="50" height="50" as="geometry">
                        <mxPoint x="5821.477864376269" y="281.3123304703361" as="sourcePoint"/>
                        <mxPoint x="5849.931484117606" y="316.45341811969644" as="targetPoint"/>
                    </mxGeometry>
                </mxCell>
                <mxCell id="644" style="edgeStyle=orthogonalEdgeStyle;jumpStyle=none;jumpSize=6;orthogonalLoop=1;jettySize=auto;html=1;entryX=0;entryY=0.5;entryDx=0;entryDy=0;startArrow=none;startFill=0;endArrow=classic;endFill=1;startSize=1;endSize=1;strokeColor=#000000;strokeWidth=3;rounded=1;exitX=0.5;exitY=0;exitDx=0;exitDy=0;" parent="1" source="653" target="641" edge="1">
                    <mxGeometry x="5470" y="290.00000000000006" as="geometry">
                        <Array as="points">
                            <mxPoint x="5826.21" y="324.83"/>
                            <mxPoint x="5850.21" y="324.83"/>
                        </Array>
                    </mxGeometry>
                </mxCell>
                <mxCell id="645" value="" style="ellipse;whiteSpace=wrap;html=1;aspect=fixed;fillColor=#e1d5e7;strokeColor=#000000;strokeWidth=4;" parent="1" vertex="1">
                    <mxGeometry x="5833.209999999999" y="388.25000000000006" width="40" height="40" as="geometry"/>
                </mxCell>
                <mxCell id="646" value="" style="endArrow=none;html=1;rounded=0;strokeColor=#000000;entryX=0.5;entryY=0;entryDx=0;entryDy=0;exitX=0.5;exitY=1;exitDx=0;exitDy=0;strokeWidth=4;" parent="1" source="645" target="645" edge="1">
                    <mxGeometry x="5470" y="290.00000000000006" width="50" height="50" as="geometry">
                        <mxPoint x="5860.62" y="351.23999999999984" as="sourcePoint"/>
                        <mxPoint x="5910.62" y="301.23999999999984" as="targetPoint"/>
                    </mxGeometry>
                </mxCell>
                <mxCell id="647" style="edgeStyle=orthogonalEdgeStyle;rounded=1;jumpStyle=none;jumpSize=6;orthogonalLoop=1;jettySize=auto;html=1;entryX=0.5;entryY=0;entryDx=0;entryDy=0;startArrow=none;startFill=0;endArrow=classic;endFill=1;startSize=1;endSize=1;strokeColor=#000000;strokeWidth=4;" parent="1" source="641" target="645" edge="1">
                    <mxGeometry x="5470" y="290.00000000000006" as="geometry"/>
                </mxCell>
                <mxCell id="648" value="" style="endArrow=none;html=1;rounded=0;strokeColor=#000000;entryX=0;entryY=0.5;entryDx=0;entryDy=0;exitX=1;exitY=0.5;exitDx=0;exitDy=0;strokeWidth=4;" parent="1" source="645" target="645" edge="1">
                    <mxGeometry x="5470" y="290.00000000000006" width="50" height="50" as="geometry">
                        <mxPoint x="5910.62" y="251.23999999999984" as="sourcePoint"/>
                        <mxPoint x="5910.62" y="191.23999999999984" as="targetPoint"/>
                    </mxGeometry>
                </mxCell>
                <mxCell id="649" value="" style="rounded=0;whiteSpace=wrap;html=1;glass=0;strokeColor=#000000;strokeWidth=4;fillColor=#FFD966;" parent="1" vertex="1">
                    <mxGeometry x="5896.73" y="352.25000000000006" width="20" height="36" as="geometry"/>
                </mxCell>
                <mxCell id="650" value="" style="endArrow=none;html=1;rounded=0;startSize=1;endSize=1;strokeColor=#000000;strokeWidth=4;jumpStyle=none;jumpSize=6;" parent="1" edge="1">
                    <mxGeometry x="5470" y="290.00000000000006" width="50" height="50" as="geometry">
                        <mxPoint x="5896.729999999999" y="388.24999999999983" as="sourcePoint"/>
                        <mxPoint x="5906.729999999999" y="377.74999999999983" as="targetPoint"/>
                    </mxGeometry>
                </mxCell>
                <mxCell id="651" value="" style="endArrow=none;html=1;rounded=0;startSize=1;endSize=1;strokeColor=#000000;strokeWidth=4;jumpStyle=none;jumpSize=6;" parent="1" edge="1">
                    <mxGeometry x="5470" y="290.00000000000006" width="50" height="50" as="geometry">
                        <mxPoint x="5905.589999999998" y="378.24999999999983" as="sourcePoint"/>
                        <mxPoint x="5915.589999999998" y="388.24999999999983" as="targetPoint"/>
                    </mxGeometry>
                </mxCell>
                <mxCell id="652" style="edgeStyle=orthogonalEdgeStyle;orthogonalLoop=1;jettySize=auto;html=1;entryX=0;entryY=0.25;entryDx=0;entryDy=0;fontSize=12;fontColor=#000000;strokeWidth=2;endSize=0;rounded=1;fillColor=#f8cecc;exitX=1;exitY=0.5;exitDx=0;exitDy=0;" parent="1" source="645" target="649" edge="1">
                    <mxGeometry x="5470" y="290.00000000000006" as="geometry">
                        <Array as="points">
                            <mxPoint x="5882" y="408.00000000000006"/>
                            <mxPoint x="5882" y="361.00000000000006"/>
                        </Array>
                        <mxPoint x="5916.715" y="381.9869037266754" as="sourcePoint"/>
                    </mxGeometry>
                </mxCell>
                <mxCell id="653" value="" style="whiteSpace=wrap;html=1;aspect=fixed;fillColor=#dae8fc;strokeColor=#000000;strokeWidth=4;" parent="1" vertex="1">
                    <mxGeometry x="5812.17" y="345.73999999999984" width="27.5" height="27.5" as="geometry"/>
                </mxCell>
                <mxCell id="654" style="edgeStyle=orthogonalEdgeStyle;rounded=1;html=1;entryX=0;entryY=0.5;entryDx=0;entryDy=0;fontSize=20;startArrow=none;startFill=0;endArrow=classic;endFill=1;strokeWidth=5;verticalAlign=middle;fillColor=#e1d5e7;strokeColor=#FF0000;" parent="1" source="621" target="631" edge="1">
                    <mxGeometry x="5470" y="290.00000000000006" as="geometry">
                        <Array as="points">
                            <mxPoint x="5624.66" y="370.00000000000006"/>
                            <mxPoint x="5624.66" y="408.00000000000006"/>
                        </Array>
                    </mxGeometry>
                </mxCell>
                <mxCell id="655" style="edgeStyle=orthogonalEdgeStyle;rounded=1;html=1;entryX=0;entryY=0.5;entryDx=0;entryDy=0;fontSize=20;startArrow=none;startFill=0;endArrow=classic;endFill=1;strokeWidth=5;verticalAlign=middle;fillColor=#e1d5e7;strokeColor=#FF0000;" parent="1" source="635" target="645" edge="1">
                    <mxGeometry x="5470" y="290.00000000000006" as="geometry">
                        <Array as="points">
                            <mxPoint x="5784.66" y="370.00000000000006"/>
                            <mxPoint x="5784.66" y="408.00000000000006"/>
                        </Array>
                    </mxGeometry>
                </mxCell>
                <mxCell id="1woVSW_QeIxlfaoUP5wK-734" value="&lt;font style=&quot;font-size: 60px&quot;&gt;&lt;b&gt;Multiple &lt;br&gt;Read-Modify-Write&lt;/b&gt;&lt;/font&gt;" style="text;html=1;strokeColor=none;fillColor=none;align=right;verticalAlign=middle;whiteSpace=wrap;rounded=0;fontSize=50;" parent="1" vertex="1">
                    <mxGeometry x="6130.002870456307" y="645.3007289293851" width="599.997129543693" height="76.87927107061505" as="geometry"/>
                </mxCell>
                <mxCell id="66" value="&lt;font style=&quot;font-size: 20px;&quot;&gt;Psum&lt;/font&gt;" style="whiteSpace=wrap;html=1;aspect=fixed;strokeColor=#000000;strokeWidth=3;fontSize=20;fontStyle=1;fillColor=#E1D5E7;verticalAlign=bottom;" parent="1" vertex="1">
                    <mxGeometry x="6290.692221302613" y="231.72" width="79.9996172724924" height="79.9996172724924" as="geometry"/>
                </mxCell>
                <mxCell id="67" value="" style="rounded=0;whiteSpace=wrap;html=1;fontSize=50;fontColor=#000000;strokeColor=#000000;strokeWidth=6;fillColor=#000000;rotation=90;" parent="1" vertex="1">
                    <mxGeometry x="6277.202285840039" y="268.3145330296128" width="18.499911494263866" height="8.805239179954443" as="geometry"/>
                </mxCell>
                <mxCell id="68" style="edgeStyle=orthogonalEdgeStyle;rounded=0;orthogonalLoop=1;jettySize=auto;html=1;exitX=0.5;exitY=1;exitDx=0;exitDy=0;entryX=0.5;entryY=0;entryDx=0;entryDy=0;" parent="1" source="69" target="67" edge="1">
                    <mxGeometry x="6119.999808636247" y="231.72" as="geometry">
                        <Array as="points">
                            <mxPoint x="6311.002124137667" y="272.46601366742595"/>
                            <mxPoint x="6291.002219819544" y="272.46601366742595"/>
                        </Array>
                        <mxPoint x="6292.0922146048815" y="329.4489293849658" as="targetPoint"/>
                    </mxGeometry>
                </mxCell>
                <mxCell id="69" value="RAG" style="ellipse;whiteSpace=wrap;html=1;aspect=fixed;sketch=0;strokeColor=#9673a6;fontSize=6;fillColor=#e1d5e7;" parent="1" vertex="1">
                    <mxGeometry x="6300.802172935425" y="235.56396355353075" width="19.9999043181231" height="19.9999043181231" as="geometry"/>
                </mxCell>
                <mxCell id="73" style="edgeStyle=orthogonalEdgeStyle;curved=1;orthogonalLoop=1;jettySize=auto;html=1;entryX=0;entryY=0.5;entryDx=0;entryDy=0;fontSize=12;strokeWidth=3;endSize=1;strokeColor=#FF0000;" parent="1" edge="1">
                    <mxGeometry x="6119.999808636247" y="231.72" as="geometry">
                        <mxPoint x="6174.577588433975" y="317.43653550086077" as="sourcePoint"/>
                        <mxPoint x="6196.267473902769" y="333.4681030362683" as="targetPoint"/>
                        <Array as="points">
                            <mxPoint x="6174.577588433975" y="307.6267429851471"/>
                            <mxPoint x="6174.577588433975" y="333.07367558103215"/>
                        </Array>
                    </mxGeometry>
                </mxCell>
                <mxCell id="74" value="t=X" style="text;html=1;align=center;verticalAlign=middle;resizable=0;points=[];autosize=1;strokeColor=none;fillColor=none;fontSize=30;fontStyle=1" parent="1" vertex="1">
                    <mxGeometry x="6104.999880397654" y="291.6243280182231" width="60" height="40" as="geometry"/>
                </mxCell>
                <mxCell id="75" value="0" style="rounded=0;whiteSpace=wrap;html=1;fontSize=15;strokeWidth=2;fontStyle=1;strokeColor=#000000;fillColor=#E1D5E7;" parent="1" vertex="1">
                    <mxGeometry x="6196.267473902769" y="319.1033095858913" width="27.986948991991422" height="25.446932595884974" as="geometry"/>
                </mxCell>
                <mxCell id="136" style="edgeStyle=orthogonalEdgeStyle;rounded=1;html=1;entryX=0.5;entryY=0;entryDx=0;entryDy=0;fontSize=6;startArrow=none;startFill=0;endArrow=classic;endFill=1;strokeWidth=3;strokeColor=#FF0000;" parent="1" target="75" edge="1">
                    <mxGeometry x="6119.999808636247" y="231.72" as="geometry">
                        <mxPoint x="6282.002262876389" y="272.72227790432805" as="sourcePoint"/>
                    </mxGeometry>
                </mxCell>
                <mxCell id="76" style="edgeStyle=orthogonalEdgeStyle;curved=1;orthogonalLoop=1;jettySize=auto;html=1;entryX=1;entryY=0.5;entryDx=0;entryDy=0;fontSize=12;endSize=1;strokeWidth=3;strokeColor=#FF0000;" parent="1" edge="1">
                    <mxGeometry x="6119.999808636247" y="231.72" as="geometry">
                        <mxPoint x="6224.254422894759" y="331.7838930900148" as="sourcePoint"/>
                        <mxPoint x="6224.254422894759" y="357.24826154712264" as="targetPoint"/>
                        <Array as="points">
                            <mxPoint x="6252.941045611551" y="331.40690149600186"/>
                            <mxPoint x="6252.941045611551" y="356.8538340918867"/>
                        </Array>
                    </mxGeometry>
                </mxCell>
                <mxCell id="77" value="1" style="rounded=0;whiteSpace=wrap;html=1;fontSize=15;strokeWidth=2;fontStyle=1;strokeColor=#000000;fillColor=#E1D5E7;" parent="1" vertex="1">
                    <mxGeometry x="6196.267473902769" y="344.5502421817763" width="27.986948991991422" height="25.446932595884974" as="geometry"/>
                </mxCell>
                <mxCell id="78" value="2" style="rounded=0;whiteSpace=wrap;html=1;fontSize=15;strokeWidth=2;fontStyle=1;strokeColor=#000000;fillColor=#E1D5E7;" parent="1" vertex="1">
                    <mxGeometry x="6196.267473902769" y="369.99717477766126" width="27.986948991991422" height="25.446932595884974" as="geometry"/>
                </mxCell>
                <mxCell id="79" value="3" style="rounded=0;whiteSpace=wrap;html=1;fontSize=15;strokeWidth=2;fontStyle=1;strokeColor=#000000;fillColor=#E1D5E7;" parent="1" vertex="1">
                    <mxGeometry x="6196.267473902769" y="395.4441073735462" width="27.986948991991422" height="25.446932595884974" as="geometry"/>
                </mxCell>
                <mxCell id="84" style="edgeStyle=orthogonalEdgeStyle;curved=1;orthogonalLoop=1;jettySize=auto;html=1;entryX=0;entryY=0.5;entryDx=0;entryDy=0;fontSize=12;strokeWidth=3;endSize=1;strokeColor=#FF0000;" parent="1" edge="1">
                    <mxGeometry x="6119.999808636247" y="231.72" as="geometry">
                        <mxPoint x="6196.267473902769" y="358.91032323722834" as="sourcePoint"/>
                        <mxPoint x="6196.267473902769" y="384.3746916943362" as="targetPoint"/>
                        <Array as="points">
                            <mxPoint x="6174.577588433975" y="358.5333316432151"/>
                            <mxPoint x="6174.577588433975" y="383.98026423910005"/>
                        </Array>
                    </mxGeometry>
                </mxCell>
                <mxCell id="85" style="edgeStyle=orthogonalEdgeStyle;curved=1;orthogonalLoop=1;jettySize=auto;html=1;entryX=1;entryY=0.5;entryDx=0;entryDy=0;fontSize=12;endSize=1;strokeWidth=3;strokeColor=#FF0000;" parent="1" edge="1">
                    <mxGeometry x="6119.999808636247" y="231.72" as="geometry">
                        <mxPoint x="6224.254422894759" y="382.6904817480827" as="sourcePoint"/>
                        <mxPoint x="6224.254422894759" y="408.154850205191" as="targetPoint"/>
                        <Array as="points">
                            <mxPoint x="6252.941045611551" y="382.31349015406954"/>
                            <mxPoint x="6252.941045611551" y="407.76042274995467"/>
                        </Array>
                    </mxGeometry>
                </mxCell>
                <mxCell id="89" value="t=X+1" style="text;html=1;align=center;verticalAlign=middle;resizable=0;points=[];autosize=1;strokeColor=none;fillColor=none;fontSize=30;fontStyle=1" parent="1" vertex="1">
                    <mxGeometry x="6251.831782888253" y="324.2056569694612" width="100" height="40" as="geometry"/>
                </mxCell>
                <mxCell id="90" value="t=X+2" style="text;html=1;align=center;verticalAlign=middle;resizable=0;points=[];autosize=1;strokeColor=none;fillColor=none;fontSize=30;fontStyle=1" parent="1" vertex="1">
                    <mxGeometry x="6080" y="344.55398779616235" width="100" height="40" as="geometry"/>
                </mxCell>
                <mxCell id="93" value="" style="endArrow=none;dashed=1;html=1;fontSize=15;endSize=1;strokeWidth=2;curved=1;" parent="1" edge="1">
                    <mxGeometry x="6119.999808636247" y="231.72" width="49.99976079530774" height="51.252847380410024" as="geometry">
                        <mxPoint x="6210.1350071283" y="449.50476176249407" as="sourcePoint"/>
                        <mxPoint x="6210.002607331146" y="420.8942596810934" as="targetPoint"/>
                    </mxGeometry>
                </mxCell>
                <mxCell id="99" value="X-1" style="rounded=0;whiteSpace=wrap;html=1;fontSize=15;strokeWidth=2;fontStyle=1;strokeColor=#000000;fillColor=#E1D5E7;" parent="1" vertex="1">
                    <mxGeometry x="6196.267473902769" y="447.83798767746333" width="27.986948991991422" height="25.446932595884974" as="geometry"/>
                </mxCell>
                <mxCell id="100" style="edgeStyle=orthogonalEdgeStyle;curved=1;orthogonalLoop=1;jettySize=auto;html=1;fontSize=12;strokeWidth=3;endSize=1;entryX=0;entryY=0.5;entryDx=0;entryDy=0;strokeColor=#FF0000;" parent="1" target="99" edge="1">
                    <mxGeometry x="6119.999808636247" y="231.72" as="geometry">
                        <mxPoint x="6174.577588433975" y="435.11452137952114" as="sourcePoint"/>
                        <mxPoint x="6137.145044157186" y="473.2849202733484" as="targetPoint"/>
                        <Array as="points">
                            <mxPoint x="6174.577588433975" y="460.561453975406"/>
                        </Array>
                    </mxGeometry>
                </mxCell>
                <mxCell id="101" value="t=2X-1" style="text;html=1;align=center;verticalAlign=middle;resizable=0;points=[];autosize=1;strokeColor=none;fillColor=none;fontSize=30;fontStyle=1" parent="1" vertex="1">
                    <mxGeometry x="6080.003229263345" y="398.4252236464987" width="110" height="40" as="geometry"/>
                </mxCell>
                <mxCell id="106" value="" style="rounded=0;whiteSpace=wrap;html=1;fontSize=50;fontColor=#000000;strokeColor=#000000;strokeWidth=6;fillColor=#000000;rotation=90;" parent="1" vertex="1">
                    <mxGeometry x="6366.59185818989" y="266.16191343963555" width="18.499911494263866" height="8.805239179954443" as="geometry"/>
                </mxCell>
                <mxCell id="107" style="edgeStyle=orthogonalEdgeStyle;rounded=0;orthogonalLoop=1;jettySize=auto;html=1;exitX=0.5;exitY=1;exitDx=0;exitDy=0;" parent="1" source="108" edge="1">
                    <mxGeometry x="6119.999808636247" y="231.72" as="geometry">
                        <Array as="points">
                            <mxPoint x="6351.001932773914" y="270.41589977220957"/>
                        </Array>
                        <mxPoint x="6373.001827523849" y="270.41589977220957" as="targetPoint"/>
                    </mxGeometry>
                </mxCell>
                <mxCell id="108" value="WAG" style="ellipse;whiteSpace=wrap;html=1;aspect=fixed;sketch=0;strokeColor=#9673a6;fontSize=6;fillColor=#e1d5e7;" parent="1" vertex="1">
                    <mxGeometry x="6340.801981571671" y="235.56396355353075" width="19.9999043181231" height="19.9999043181231" as="geometry"/>
                </mxCell>
                <mxCell id="109" value="t=X+3" style="text;html=1;align=center;verticalAlign=middle;resizable=0;points=[];autosize=1;strokeColor=none;fillColor=none;fontSize=30;fontStyle=1" parent="1" vertex="1">
                    <mxGeometry x="6251.831782888253" y="376.2477981995295" width="100" height="40" as="geometry"/>
                </mxCell>
                <mxCell id="116" style="edgeStyle=orthogonalEdgeStyle;curved=1;orthogonalLoop=1;jettySize=auto;html=1;entryX=0;entryY=0.5;entryDx=0;entryDy=0;fontSize=12;strokeWidth=3;endSize=1;startArrow=classic;startFill=1;endArrow=none;endFill=0;strokeColor=#FF0000;" parent="1" edge="1">
                    <mxGeometry x="6119.999808636247" y="231.72" as="geometry">
                        <mxPoint x="6425.001578750969" y="301.50587699316634" as="sourcePoint"/>
                        <mxPoint x="6441.096302613072" y="327.1742533779541" as="targetPoint"/>
                        <Array as="points">
                            <mxPoint x="6425.001578750969" y="310.73138952164015"/>
                            <mxPoint x="6425.001578750969" y="327.13230068337134"/>
                        </Array>
                    </mxGeometry>
                </mxCell>
                <mxCell id="117" value="t=X-1" style="text;html=1;align=center;verticalAlign=middle;resizable=0;points=[];autosize=1;strokeColor=none;fillColor=none;fontSize=30;fontStyle=1" parent="1" vertex="1">
                    <mxGeometry x="6351.82869953977" y="322.0070159453302" width="90" height="40" as="geometry"/>
                </mxCell>
                <mxCell id="137" style="edgeStyle=orthogonalEdgeStyle;rounded=1;html=1;fontSize=6;startArrow=none;startFill=0;endArrow=classic;endFill=1;strokeWidth=3;strokeColor=#FF0000;" parent="1" source="118" edge="1">
                    <mxGeometry x="6119.999808636247" y="231.72" as="geometry">
                        <mxPoint x="6385.001770114723" y="270.6721640091116" as="targetPoint"/>
                        <Array as="points">
                            <mxPoint x="6455.001435228153" y="270.41589977220957"/>
                        </Array>
                    </mxGeometry>
                </mxCell>
                <mxCell id="118" value="X-1" style="rounded=0;whiteSpace=wrap;html=1;fontSize=15;strokeWidth=2;fontStyle=1;strokeColor=#000000;fillColor=#E1D5E7;" parent="1" vertex="1">
                    <mxGeometry x="6441.096302613072" y="308.85274010980936" width="27.986948991991422" height="25.446932595884974" as="geometry"/>
                </mxCell>
                <mxCell id="120" value="1" style="rounded=0;whiteSpace=wrap;html=1;fontSize=15;strokeWidth=2;fontStyle=1;strokeColor=#000000;fillColor=#E1D5E7;" parent="1" vertex="1">
                    <mxGeometry x="6441.096302613072" y="365.20513967608156" width="27.986948991991422" height="25.446932595884974" as="geometry"/>
                </mxCell>
                <mxCell id="121" value="2" style="rounded=0;whiteSpace=wrap;html=1;fontSize=15;strokeWidth=2;fontStyle=1;strokeColor=#000000;fillColor=#E1D5E7;" parent="1" vertex="1">
                    <mxGeometry x="6441.096302613072" y="390.6520722719666" width="27.986948991991422" height="25.446932595884974" as="geometry"/>
                </mxCell>
                <mxCell id="122" value="3" style="rounded=0;whiteSpace=wrap;html=1;fontSize=15;strokeWidth=2;fontStyle=1;strokeColor=#000000;fillColor=#E1D5E7;" parent="1" vertex="1">
                    <mxGeometry x="6441.096302613072" y="416.0990048678516" width="27.986948991991422" height="25.446932595884974" as="geometry"/>
                </mxCell>
                <mxCell id="123" style="edgeStyle=orthogonalEdgeStyle;curved=1;orthogonalLoop=1;jettySize=auto;html=1;entryX=0;entryY=0.5;entryDx=0;entryDy=0;fontSize=12;strokeWidth=3;endSize=1;startArrow=classic;startFill=1;endArrow=none;endFill=0;strokeColor=#FF0000;" parent="1" edge="1">
                    <mxGeometry x="6119.999808636247" y="231.72" as="geometry">
                        <mxPoint x="6441.096302613072" y="377.228090890987" as="sourcePoint"/>
                        <mxPoint x="6441.096302613072" y="402.69245934809487" as="targetPoint"/>
                        <Array as="points">
                            <mxPoint x="6419.406417144279" y="376.85109929697376"/>
                            <mxPoint x="6419.406417144279" y="402.2980318928587"/>
                        </Array>
                    </mxGeometry>
                </mxCell>
                <mxCell id="124" style="edgeStyle=orthogonalEdgeStyle;curved=1;orthogonalLoop=1;jettySize=auto;html=1;entryX=1;entryY=0.5;entryDx=0;entryDy=0;fontSize=12;endSize=1;strokeWidth=3;startArrow=classic;startFill=1;endArrow=none;endFill=0;strokeColor=#FF0000;" parent="1" edge="1">
                    <mxGeometry x="6119.999808636247" y="231.72" as="geometry">
                        <mxPoint x="6469.083251605063" y="405.969525028265" as="sourcePoint"/>
                        <mxPoint x="6469.083251605063" y="431.43389348537346" as="targetPoint"/>
                        <Array as="points">
                            <mxPoint x="6497.769874321854" y="405.592533434252"/>
                            <mxPoint x="6497.769874321854" y="431.0394660301371"/>
                        </Array>
                    </mxGeometry>
                </mxCell>
                <mxCell id="126" value="t=2" style="text;html=1;align=center;verticalAlign=middle;resizable=0;points=[];autosize=1;strokeColor=none;fillColor=none;fontSize=30;fontStyle=1" parent="1" vertex="1">
                    <mxGeometry x="6364.82863734655" y="363.0050128531101" width="60" height="40" as="geometry"/>
                </mxCell>
                <mxCell id="127" value="" style="endArrow=none;dashed=1;html=1;fontSize=15;endSize=1;strokeWidth=2;curved=1;" parent="1" edge="1">
                    <mxGeometry x="6119.999808636247" y="231.72" width="49.99976079530774" height="51.252847380410024" as="geometry">
                        <mxPoint x="6455.10383516883" y="365.2040783911957" as="sourcePoint"/>
                        <mxPoint x="6454.971435371675" y="336.593576309795" as="targetPoint"/>
                    </mxGeometry>
                </mxCell>
                <mxCell id="128" value="0" style="rounded=0;whiteSpace=wrap;html=1;fontSize=15;strokeWidth=2;fontStyle=1;strokeColor=#000000;fillColor=#E1D5E7;" parent="1" vertex="1">
                    <mxGeometry x="6441.096302613072" y="441.5441380191491" width="27.986948991991422" height="25.446932595884974" as="geometry"/>
                </mxCell>
                <mxCell id="129" style="edgeStyle=orthogonalEdgeStyle;curved=1;orthogonalLoop=1;jettySize=auto;html=1;fontSize=12;strokeWidth=3;endSize=1;entryX=0;entryY=0.5;entryDx=0;entryDy=0;startArrow=classic;startFill=1;endArrow=none;endFill=0;exitX=0;exitY=0.5;exitDx=0;exitDy=0;strokeColor=#FF0000;" parent="1" source="122" target="128" edge="1">
                    <mxGeometry x="6119.999808636247" y="231.72" as="geometry">
                        <mxPoint x="6419.406417144279" y="428.8206717212069" as="sourcePoint"/>
                        <mxPoint x="6381.97387286749" y="466.99107061503423" as="targetPoint"/>
                        <Array as="points">
                            <mxPoint x="6419.0016074555315" y="428.61293849658324"/>
                            <mxPoint x="6419.0016074555315" y="454.23936218678824"/>
                        </Array>
                    </mxGeometry>
                </mxCell>
                <mxCell id="130" value="t=0" style="text;html=1;align=center;verticalAlign=middle;resizable=0;points=[];autosize=1;strokeColor=none;fillColor=none;fontSize=30;fontStyle=1" parent="1" vertex="1">
                    <mxGeometry x="6364.831866609896" y="417.2452692045854" width="60" height="40" as="geometry"/>
                </mxCell>
                <mxCell id="131" value="t=3" style="text;html=1;align=center;verticalAlign=middle;resizable=0;points=[];autosize=1;strokeColor=none;fillColor=none;fontSize=30;fontStyle=1" parent="1" vertex="1">
                    <mxGeometry x="6495.000619540153" y="334.3024679034021" width="60" height="40" as="geometry"/>
                </mxCell>
                <mxCell id="132" style="edgeStyle=orthogonalEdgeStyle;curved=1;orthogonalLoop=1;jettySize=auto;html=1;entryX=1;entryY=0.5;entryDx=0;entryDy=0;fontSize=12;endSize=1;strokeWidth=3;startArrow=classic;startFill=1;endArrow=none;endFill=0;strokeColor=#FF0000;" parent="1" edge="1">
                    <mxGeometry x="6119.999808636247" y="231.72" as="geometry">
                        <mxPoint x="6498.001229512118" y="353.78378132118456" as="sourcePoint"/>
                        <mxPoint x="6469.083251605063" y="379.69926933958754" as="targetPoint"/>
                        <Array as="points">
                            <mxPoint x="6497.769874321854" y="353.8579092884661"/>
                            <mxPoint x="6497.769874321854" y="379.30484188435116"/>
                        </Array>
                    </mxGeometry>
                </mxCell>
                <mxCell id="134" value="t=1" style="text;html=1;align=center;verticalAlign=middle;resizable=0;points=[];autosize=1;strokeColor=none;fillColor=none;fontSize=30;fontStyle=1" parent="1" vertex="1">
                    <mxGeometry x="6495.0012438644" y="398.4252236464988" width="60" height="40" as="geometry"/>
                </mxCell>
                <mxCell id="271" value="" style="ellipse;whiteSpace=wrap;html=1;aspect=fixed;fontSize=30;strokeColor=#000000;fillColor=#FFD966;opacity=80;" parent="1" vertex="1">
                    <mxGeometry x="6257.592379656119" y="434.7735307517085" width="149.99928238592324" height="149.99928238592324" as="geometry"/>
                </mxCell>
                <mxCell id="135" style="edgeStyle=orthogonalEdgeStyle;html=1;entryX=0;entryY=0.5;entryDx=0;entryDy=0;fontSize=6;startArrow=none;startFill=0;endArrow=classic;endFill=1;strokeWidth=3;strokeColor=#FF0000;" parent="1" source="99" target="271" edge="1">
                    <mxGeometry x="6119.999808636247" y="231.72" as="geometry">
                        <mxPoint x="6257.592379656123" y="501.40223234624165" as="targetPoint"/>
                        <Array as="points">
                            <mxPoint x="6210.002607331146" y="511.30428246013673"/>
                            <mxPoint x="6258.002377694641" y="511.30428246013673"/>
                        </Array>
                    </mxGeometry>
                </mxCell>
                <mxCell id="272" value="" style="ellipse;whiteSpace=wrap;html=1;aspect=fixed;fillColor=#67AB9F;strokeWidth=4;strokeColor=#000000;" parent="1" vertex="1">
                    <mxGeometry x="6317.4320933759445" y="449.88287015945326" width="39.9998086362462" height="39.9998086362462" as="geometry"/>
                </mxCell>
                <mxCell id="273" value="" style="endArrow=none;html=1;rounded=0;strokeColor=#000000;strokeWidth=4;exitX=0;exitY=0;exitDx=0;exitDy=0;entryX=1;entryY=1;entryDx=0;entryDy=0;" parent="1" source="272" target="272" edge="1">
                    <mxGeometry x="6119.999808636247" y="231.72" width="49.99976079530774" height="51.252847380410024" as="geometry">
                        <mxPoint x="6333.212017882943" y="482.42842824601365" as="sourcePoint"/>
                        <mxPoint x="6358.211898280597" y="450.3953986332574" as="targetPoint"/>
                    </mxGeometry>
                </mxCell>
                <mxCell id="274" value="" style="endArrow=none;html=1;rounded=0;strokeColor=#000000;strokeWidth=4;exitX=0;exitY=1;exitDx=0;exitDy=0;entryX=1;entryY=0;entryDx=0;entryDy=0;" parent="1" source="272" target="272" edge="1">
                    <mxGeometry x="6119.999808636247" y="231.72" width="49.99976079530774" height="51.252847380410024" as="geometry">
                        <mxPoint x="6289.070093439332" y="425.86817474180253" as="sourcePoint"/>
                        <mxPoint x="6317.523577055881" y="461.88979078328805" as="targetPoint"/>
                    </mxGeometry>
                </mxCell>
                <mxCell id="275" style="edgeStyle=orthogonalEdgeStyle;jumpStyle=none;jumpSize=6;orthogonalLoop=1;jettySize=auto;html=1;entryX=0;entryY=0.5;entryDx=0;entryDy=0;startArrow=none;startFill=0;endArrow=classic;endFill=1;startSize=1;endSize=1;strokeColor=#000000;strokeWidth=3;rounded=1;exitX=0.5;exitY=0;exitDx=0;exitDy=0;" parent="1" source="284" target="272" edge="1">
                    <mxGeometry x="6119.999808636247" y="231.72" as="geometry">
                        <Array as="points">
                            <mxPoint x="6293.802206424081" y="470.4762642369019"/>
                            <mxPoint x="6317.802091605829" y="470.4762642369019"/>
                        </Array>
                    </mxGeometry>
                </mxCell>
                <mxCell id="276" value="" style="ellipse;whiteSpace=wrap;html=1;aspect=fixed;fillColor=#e1d5e7;strokeColor=#000000;strokeWidth=4;" parent="1" vertex="1">
                    <mxGeometry x="6300.802172935424" y="535.4853758542141" width="39.9998086362462" height="39.9998086362462" as="geometry"/>
                </mxCell>
                <mxCell id="277" value="" style="endArrow=none;html=1;rounded=0;strokeColor=#000000;entryX=0.5;entryY=0;entryDx=0;entryDy=0;exitX=0.5;exitY=1;exitDx=0;exitDy=0;strokeWidth=4;" parent="1" source="276" target="276" edge="1">
                    <mxGeometry x="6119.999808636247" y="231.72" width="49.99976079530774" height="51.252847380410024" as="geometry">
                        <mxPoint x="6328.212041803412" y="497.5480182232346" as="sourcePoint"/>
                        <mxPoint x="6378.21180259872" y="446.2951708428246" as="targetPoint"/>
                    </mxGeometry>
                </mxCell>
                <mxCell id="278" style="edgeStyle=orthogonalEdgeStyle;rounded=1;jumpStyle=none;jumpSize=6;orthogonalLoop=1;jettySize=auto;html=1;entryX=0.5;entryY=0;entryDx=0;entryDy=0;startArrow=none;startFill=0;endArrow=classic;endFill=1;startSize=1;endSize=1;strokeColor=#000000;strokeWidth=4;" parent="1" source="272" target="276" edge="1">
                    <mxGeometry x="6119.999808636247" y="231.72" as="geometry"/>
                </mxCell>
                <mxCell id="279" value="" style="endArrow=none;html=1;rounded=0;strokeColor=#000000;entryX=0;entryY=0.5;entryDx=0;entryDy=0;exitX=1;exitY=0.5;exitDx=0;exitDy=0;strokeWidth=4;" parent="1" source="276" target="276" edge="1">
                    <mxGeometry x="6119.999808636247" y="231.72" width="49.99976079530774" height="51.252847380410024" as="geometry">
                        <mxPoint x="6378.21180259872" y="395.0423234624145" as="sourcePoint"/>
                        <mxPoint x="6378.21180259872" y="333.5389066059225" as="targetPoint"/>
                    </mxGeometry>
                </mxCell>
                <mxCell id="280" value="" style="rounded=0;whiteSpace=wrap;html=1;glass=0;strokeColor=#000000;strokeWidth=4;fillColor=#FFD966;" parent="1" vertex="1">
                    <mxGeometry x="6364.321869049783" y="498.58332574031886" width="19.9999043181231" height="36.90205011389522" as="geometry"/>
                </mxCell>
                <mxCell id="281" value="" style="endArrow=none;html=1;rounded=0;startSize=1;endSize=1;strokeColor=#000000;strokeWidth=4;jumpStyle=none;jumpSize=6;" parent="1" edge="1">
                    <mxGeometry x="6119.999808636247" y="231.72" width="49.99976079530774" height="51.252847380410024" as="geometry">
                        <mxPoint x="6364.3218690497815" y="535.4853758542141" as="sourcePoint"/>
                        <mxPoint x="6374.321821208843" y="524.7222779043279" as="targetPoint"/>
                    </mxGeometry>
                </mxCell>
                <mxCell id="282" value="" style="endArrow=none;html=1;rounded=0;startSize=1;endSize=1;strokeColor=#000000;strokeWidth=4;jumpStyle=none;jumpSize=6;" parent="1" edge="1">
                    <mxGeometry x="6119.999808636247" y="231.72" width="49.99976079530774" height="51.252847380410024" as="geometry">
                        <mxPoint x="6373.181826662711" y="525.2348063781321" as="sourcePoint"/>
                        <mxPoint x="6383.181778821772" y="535.4853758542141" as="targetPoint"/>
                    </mxGeometry>
                </mxCell>
                <mxCell id="283" style="edgeStyle=orthogonalEdgeStyle;orthogonalLoop=1;jettySize=auto;html=1;entryX=0;entryY=0.25;entryDx=0;entryDy=0;fontSize=12;fontColor=#000000;strokeWidth=2;endSize=0;rounded=1;fillColor=#f8cecc;exitX=1;exitY=0.5;exitDx=0;exitDy=0;" parent="1" source="276" target="280" edge="1">
                    <mxGeometry x="6119.999808636247" y="231.72" as="geometry">
                        <Array as="points">
                            <mxPoint x="6349.591939519486" y="555.7302505694761"/>
                            <mxPoint x="6349.591939519486" y="507.55257403189074"/>
                        </Array>
                        <mxPoint x="6384.306773439668" y="529.0653455057038" as="sourcePoint"/>
                    </mxGeometry>
                </mxCell>
                <mxCell id="284" value="" style="whiteSpace=wrap;html=1;aspect=fixed;fillColor=#dae8fc;strokeColor=#000000;strokeWidth=4;" parent="1" vertex="1">
                    <mxGeometry x="6279.762273592759" y="491.9102050113895" width="27.49986843741926" height="27.49986843741926" as="geometry"/>
                </mxCell>
                <mxCell id="41" style="edgeStyle=orthogonalEdgeStyle;orthogonalLoop=1;jettySize=auto;html=1;fontSize=30;fontColor=#990000;startArrow=none;startFill=0;endArrow=classic;endFill=1;strokeWidth=3;exitX=1;exitY=0.5;exitDx=0;exitDy=0;fillColor=#f8cecc;entryX=0.5;entryY=1;entryDx=0;entryDy=0;rounded=1;strokeColor=#FF0000;" parent="1" source="271" target="128" edge="1">
                    <mxGeometry x="6119.999808636247" y="231.72" as="geometry">
                        <mxPoint x="6459.741412551549" y="530.1755808656035" as="targetPoint"/>
                        <Array as="points">
                            <mxPoint x="6455.001435228153" y="511.30428246013673"/>
                        </Array>
                        <mxPoint x="6439.831507802857" y="521.6522323462414" as="sourcePoint"/>
                    </mxGeometry>
                </mxCell>
                <mxCell id="1woVSW_QeIxlfaoUP5wK-731" value="&lt;font style=&quot;font-size: 60px&quot;&gt;&lt;b&gt;Store&amp;amp;Fwd (Sys. Array)&lt;/b&gt;&lt;/font&gt;" style="text;html=1;strokeColor=none;fillColor=none;align=center;verticalAlign=middle;whiteSpace=wrap;rounded=0;fontSize=50;" parent="1" vertex="1">
                    <mxGeometry x="5390" y="20.000000000000057" width="680" height="75" as="geometry"/>
                </mxCell>
                <mxCell id="469" value="" style="ellipse;whiteSpace=wrap;html=1;aspect=fixed;fontSize=30;strokeColor=#000000;fillColor=#FFD966;opacity=80;" parent="1" vertex="1">
                    <mxGeometry x="5400" y="-195.64" width="150" height="150" as="geometry"/>
                </mxCell>
                <mxCell id="470" value="" style="ellipse;whiteSpace=wrap;html=1;aspect=fixed;fillColor=#67AB9F;strokeWidth=4;strokeColor=#000000;" parent="1" vertex="1">
                    <mxGeometry x="5459.84" y="-180.9000000000002" width="40" height="40" as="geometry"/>
                </mxCell>
                <mxCell id="471" value="" style="endArrow=none;html=1;rounded=0;strokeColor=#000000;strokeWidth=4;exitX=0;exitY=0;exitDx=0;exitDy=0;entryX=1;entryY=1;entryDx=0;entryDy=0;" parent="1" source="470" target="470" edge="1">
                    <mxGeometry x="5400" y="-300" width="50" height="50" as="geometry">
                        <mxPoint x="5475.62" y="-149.1500000000002" as="sourcePoint"/>
                        <mxPoint x="5500.62" y="-180.4000000000002" as="targetPoint"/>
                    </mxGeometry>
                </mxCell>
                <mxCell id="472" value="" style="endArrow=none;html=1;rounded=0;strokeColor=#000000;strokeWidth=4;exitX=0;exitY=1;exitDx=0;exitDy=0;entryX=1;entryY=0;entryDx=0;entryDy=0;" parent="1" source="470" target="470" edge="1">
                    <mxGeometry x="5400" y="-300" width="50" height="50" as="geometry">
                        <mxPoint x="5431.477864376269" y="-204.32766952966392" as="sourcePoint"/>
                        <mxPoint x="5459.931484117606" y="-169.1865818803036" as="targetPoint"/>
                    </mxGeometry>
                </mxCell>
                <mxCell id="473" style="edgeStyle=orthogonalEdgeStyle;jumpStyle=none;jumpSize=6;orthogonalLoop=1;jettySize=auto;html=1;entryX=0;entryY=0.5;entryDx=0;entryDy=0;startArrow=none;startFill=0;endArrow=classic;endFill=1;startSize=1;endSize=1;strokeColor=#000000;strokeWidth=3;rounded=1;exitX=0.5;exitY=0;exitDx=0;exitDy=0;" parent="1" source="482" target="470" edge="1">
                    <mxGeometry x="5400" y="-300" as="geometry">
                        <Array as="points">
                            <mxPoint x="5436.21" y="-160.81000000000006"/>
                            <mxPoint x="5460.21" y="-160.81000000000006"/>
                        </Array>
                    </mxGeometry>
                </mxCell>
                <mxCell id="474" value="" style="ellipse;whiteSpace=wrap;html=1;aspect=fixed;fillColor=#e1d5e7;strokeColor=#000000;strokeWidth=4;" parent="1" vertex="1">
                    <mxGeometry x="5443.209999999999" y="-97.38999999999999" width="40" height="40" as="geometry"/>
                </mxCell>
                <mxCell id="475" value="" style="endArrow=none;html=1;rounded=0;strokeColor=#000000;entryX=0.5;entryY=0;entryDx=0;entryDy=0;exitX=0.5;exitY=1;exitDx=0;exitDy=0;strokeWidth=4;" parent="1" source="474" target="474" edge="1">
                    <mxGeometry x="5400" y="-300" width="50" height="50" as="geometry">
                        <mxPoint x="5470.62" y="-134.4000000000002" as="sourcePoint"/>
                        <mxPoint x="5520.62" y="-184.4000000000002" as="targetPoint"/>
                    </mxGeometry>
                </mxCell>
                <mxCell id="476" style="edgeStyle=orthogonalEdgeStyle;rounded=1;jumpStyle=none;jumpSize=6;orthogonalLoop=1;jettySize=auto;html=1;entryX=0.5;entryY=0;entryDx=0;entryDy=0;startArrow=none;startFill=0;endArrow=classic;endFill=1;startSize=1;endSize=1;strokeColor=#000000;strokeWidth=4;" parent="1" source="470" target="474" edge="1">
                    <mxGeometry x="5400" y="-300" as="geometry"/>
                </mxCell>
                <mxCell id="477" value="" style="endArrow=none;html=1;rounded=0;strokeColor=#000000;entryX=0;entryY=0.5;entryDx=0;entryDy=0;exitX=1;exitY=0.5;exitDx=0;exitDy=0;strokeWidth=4;" parent="1" source="474" target="474" edge="1">
                    <mxGeometry x="5400" y="-300" width="50" height="50" as="geometry">
                        <mxPoint x="5520.62" y="-234.4000000000002" as="sourcePoint"/>
                        <mxPoint x="5520.62" y="-294.4000000000002" as="targetPoint"/>
                    </mxGeometry>
                </mxCell>
                <mxCell id="478" value="" style="rounded=0;whiteSpace=wrap;html=1;glass=0;strokeColor=#000000;strokeWidth=4;fillColor=#FFD966;" parent="1" vertex="1">
                    <mxGeometry x="5506.73" y="-133.39" width="20" height="36" as="geometry"/>
                </mxCell>
                <mxCell id="479" value="" style="endArrow=none;html=1;rounded=0;startSize=1;endSize=1;strokeColor=#000000;strokeWidth=4;jumpStyle=none;jumpSize=6;" parent="1" edge="1">
                    <mxGeometry x="5400" y="-300" width="50" height="50" as="geometry">
                        <mxPoint x="5506.729999999998" y="-97.39000000000021" as="sourcePoint"/>
                        <mxPoint x="5516.729999999998" y="-107.89000000000021" as="targetPoint"/>
                    </mxGeometry>
                </mxCell>
                <mxCell id="480" value="" style="endArrow=none;html=1;rounded=0;startSize=1;endSize=1;strokeColor=#000000;strokeWidth=4;jumpStyle=none;jumpSize=6;" parent="1" edge="1">
                    <mxGeometry x="5400" y="-300" width="50" height="50" as="geometry">
                        <mxPoint x="5515.589999999998" y="-107.39000000000021" as="sourcePoint"/>
                        <mxPoint x="5525.589999999998" y="-97.39000000000021" as="targetPoint"/>
                    </mxGeometry>
                </mxCell>
                <mxCell id="481" style="edgeStyle=orthogonalEdgeStyle;orthogonalLoop=1;jettySize=auto;html=1;entryX=0;entryY=0.25;entryDx=0;entryDy=0;fontSize=12;fontColor=#000000;strokeWidth=2;endSize=0;rounded=1;fillColor=#f8cecc;exitX=1;exitY=0.5;exitDx=0;exitDy=0;" parent="1" source="474" target="478" edge="1">
                    <mxGeometry x="5400" y="-300" as="geometry">
                        <Array as="points">
                            <mxPoint x="5492" y="-77.63999999999999"/>
                            <mxPoint x="5492" y="-124.63999999999999"/>
                        </Array>
                        <mxPoint x="5526.715" y="-103.65309627332465" as="sourcePoint"/>
                    </mxGeometry>
                </mxCell>
                <mxCell id="482" value="" style="whiteSpace=wrap;html=1;aspect=fixed;fillColor=#dae8fc;strokeColor=#000000;strokeWidth=4;" parent="1" vertex="1">
                    <mxGeometry x="5422.17" y="-139.9000000000002" width="27.5" height="27.5" as="geometry"/>
                </mxCell>
                <mxCell id="483" value="" style="ellipse;whiteSpace=wrap;html=1;aspect=fixed;fontSize=30;strokeColor=#000000;fillColor=#FFD966;opacity=80;" parent="1" vertex="1">
                    <mxGeometry x="5560" y="-195.64" width="150" height="150" as="geometry"/>
                </mxCell>
                <mxCell id="484" value="" style="ellipse;whiteSpace=wrap;html=1;aspect=fixed;fillColor=#67AB9F;strokeWidth=4;strokeColor=#000000;" parent="1" vertex="1">
                    <mxGeometry x="5619.84" y="-180.9000000000002" width="40" height="40" as="geometry"/>
                </mxCell>
                <mxCell id="485" value="" style="endArrow=none;html=1;rounded=0;strokeColor=#000000;strokeWidth=4;exitX=0;exitY=0;exitDx=0;exitDy=0;entryX=1;entryY=1;entryDx=0;entryDy=0;" parent="1" source="484" target="484" edge="1">
                    <mxGeometry x="5400" y="-300" width="50" height="50" as="geometry">
                        <mxPoint x="5635.62" y="-149.1500000000002" as="sourcePoint"/>
                        <mxPoint x="5660.62" y="-180.4000000000002" as="targetPoint"/>
                    </mxGeometry>
                </mxCell>
                <mxCell id="486" value="" style="endArrow=none;html=1;rounded=0;strokeColor=#000000;strokeWidth=4;exitX=0;exitY=1;exitDx=0;exitDy=0;entryX=1;entryY=0;entryDx=0;entryDy=0;" parent="1" source="484" target="484" edge="1">
                    <mxGeometry x="5400" y="-300" width="50" height="50" as="geometry">
                        <mxPoint x="5591.477864376269" y="-204.32766952966392" as="sourcePoint"/>
                        <mxPoint x="5619.931484117606" y="-169.1865818803036" as="targetPoint"/>
                    </mxGeometry>
                </mxCell>
                <mxCell id="487" style="edgeStyle=orthogonalEdgeStyle;jumpStyle=none;jumpSize=6;orthogonalLoop=1;jettySize=auto;html=1;entryX=0;entryY=0.5;entryDx=0;entryDy=0;startArrow=none;startFill=0;endArrow=classic;endFill=1;startSize=1;endSize=1;strokeColor=#000000;strokeWidth=3;rounded=1;exitX=0.5;exitY=0;exitDx=0;exitDy=0;" parent="1" source="496" target="484" edge="1">
                    <mxGeometry x="5400" y="-300" as="geometry">
                        <Array as="points">
                            <mxPoint x="5596.21" y="-160.81000000000006"/>
                            <mxPoint x="5620.21" y="-160.81000000000006"/>
                        </Array>
                    </mxGeometry>
                </mxCell>
                <mxCell id="488" value="" style="ellipse;whiteSpace=wrap;html=1;aspect=fixed;fillColor=#e1d5e7;strokeColor=#000000;strokeWidth=4;" parent="1" vertex="1">
                    <mxGeometry x="5603.209999999999" y="-97.38999999999999" width="40" height="40" as="geometry"/>
                </mxCell>
                <mxCell id="489" value="" style="endArrow=none;html=1;rounded=0;strokeColor=#000000;entryX=0.5;entryY=0;entryDx=0;entryDy=0;exitX=0.5;exitY=1;exitDx=0;exitDy=0;strokeWidth=4;" parent="1" source="488" target="488" edge="1">
                    <mxGeometry x="5400" y="-300" width="50" height="50" as="geometry">
                        <mxPoint x="5630.62" y="-134.4000000000002" as="sourcePoint"/>
                        <mxPoint x="5680.62" y="-184.4000000000002" as="targetPoint"/>
                    </mxGeometry>
                </mxCell>
                <mxCell id="490" style="edgeStyle=orthogonalEdgeStyle;rounded=1;jumpStyle=none;jumpSize=6;orthogonalLoop=1;jettySize=auto;html=1;entryX=0.5;entryY=0;entryDx=0;entryDy=0;startArrow=none;startFill=0;endArrow=classic;endFill=1;startSize=1;endSize=1;strokeColor=#000000;strokeWidth=4;" parent="1" source="484" target="488" edge="1">
                    <mxGeometry x="5400" y="-300" as="geometry"/>
                </mxCell>
                <mxCell id="491" value="" style="endArrow=none;html=1;rounded=0;strokeColor=#000000;entryX=0;entryY=0.5;entryDx=0;entryDy=0;exitX=1;exitY=0.5;exitDx=0;exitDy=0;strokeWidth=4;" parent="1" source="488" target="488" edge="1">
                    <mxGeometry x="5400" y="-300" width="50" height="50" as="geometry">
                        <mxPoint x="5680.62" y="-234.4000000000002" as="sourcePoint"/>
                        <mxPoint x="5680.62" y="-294.4000000000002" as="targetPoint"/>
                    </mxGeometry>
                </mxCell>
                <mxCell id="492" value="" style="rounded=0;whiteSpace=wrap;html=1;glass=0;strokeColor=#000000;strokeWidth=4;fillColor=#FFD966;" parent="1" vertex="1">
                    <mxGeometry x="5666.73" y="-133.39" width="20" height="36" as="geometry"/>
                </mxCell>
                <mxCell id="493" value="" style="endArrow=none;html=1;rounded=0;startSize=1;endSize=1;strokeColor=#000000;strokeWidth=4;jumpStyle=none;jumpSize=6;" parent="1" edge="1">
                    <mxGeometry x="5400" y="-300" width="50" height="50" as="geometry">
                        <mxPoint x="5666.729999999998" y="-97.39000000000021" as="sourcePoint"/>
                        <mxPoint x="5676.729999999998" y="-107.89000000000021" as="targetPoint"/>
                    </mxGeometry>
                </mxCell>
                <mxCell id="494" value="" style="endArrow=none;html=1;rounded=0;startSize=1;endSize=1;strokeColor=#000000;strokeWidth=4;jumpStyle=none;jumpSize=6;" parent="1" edge="1">
                    <mxGeometry x="5400" y="-300" width="50" height="50" as="geometry">
                        <mxPoint x="5675.589999999998" y="-107.39000000000021" as="sourcePoint"/>
                        <mxPoint x="5685.589999999998" y="-97.39000000000021" as="targetPoint"/>
                    </mxGeometry>
                </mxCell>
                <mxCell id="495" style="edgeStyle=orthogonalEdgeStyle;orthogonalLoop=1;jettySize=auto;html=1;entryX=0;entryY=0.25;entryDx=0;entryDy=0;fontSize=12;fontColor=#000000;strokeWidth=2;endSize=0;rounded=1;fillColor=#f8cecc;exitX=1;exitY=0.5;exitDx=0;exitDy=0;" parent="1" source="488" target="492" edge="1">
                    <mxGeometry x="5400" y="-300" as="geometry">
                        <Array as="points">
                            <mxPoint x="5652" y="-77.63999999999999"/>
                            <mxPoint x="5652" y="-124.63999999999999"/>
                        </Array>
                        <mxPoint x="5686.715" y="-103.65309627332465" as="sourcePoint"/>
                    </mxGeometry>
                </mxCell>
                <mxCell id="496" value="" style="whiteSpace=wrap;html=1;aspect=fixed;fillColor=#dae8fc;strokeColor=#000000;strokeWidth=4;" parent="1" vertex="1">
                    <mxGeometry x="5582.17" y="-139.9000000000002" width="27.5" height="27.5" as="geometry"/>
                </mxCell>
                <mxCell id="553" value="" style="ellipse;whiteSpace=wrap;html=1;aspect=fixed;fontSize=30;strokeColor=#000000;fillColor=#FFD966;opacity=80;" parent="1" vertex="1">
                    <mxGeometry x="5720" y="-195.64" width="150" height="150" as="geometry"/>
                </mxCell>
                <mxCell id="554" value="" style="ellipse;whiteSpace=wrap;html=1;aspect=fixed;fillColor=#67AB9F;strokeWidth=4;strokeColor=#000000;" parent="1" vertex="1">
                    <mxGeometry x="5779.84" y="-180.9000000000002" width="40" height="40" as="geometry"/>
                </mxCell>
                <mxCell id="555" value="" style="endArrow=none;html=1;rounded=0;strokeColor=#000000;strokeWidth=4;exitX=0;exitY=0;exitDx=0;exitDy=0;entryX=1;entryY=1;entryDx=0;entryDy=0;" parent="1" source="554" target="554" edge="1">
                    <mxGeometry x="5400" y="-300" width="50" height="50" as="geometry">
                        <mxPoint x="5795.62" y="-149.1500000000002" as="sourcePoint"/>
                        <mxPoint x="5820.62" y="-180.4000000000002" as="targetPoint"/>
                    </mxGeometry>
                </mxCell>
                <mxCell id="556" value="" style="endArrow=none;html=1;rounded=0;strokeColor=#000000;strokeWidth=4;exitX=0;exitY=1;exitDx=0;exitDy=0;entryX=1;entryY=0;entryDx=0;entryDy=0;" parent="1" source="554" target="554" edge="1">
                    <mxGeometry x="5400" y="-300" width="50" height="50" as="geometry">
                        <mxPoint x="5751.477864376269" y="-204.32766952966392" as="sourcePoint"/>
                        <mxPoint x="5779.931484117606" y="-169.1865818803036" as="targetPoint"/>
                    </mxGeometry>
                </mxCell>
                <mxCell id="557" style="edgeStyle=orthogonalEdgeStyle;jumpStyle=none;jumpSize=6;orthogonalLoop=1;jettySize=auto;html=1;entryX=0;entryY=0.5;entryDx=0;entryDy=0;startArrow=none;startFill=0;endArrow=classic;endFill=1;startSize=1;endSize=1;strokeColor=#000000;strokeWidth=3;rounded=1;exitX=0.5;exitY=0;exitDx=0;exitDy=0;" parent="1" source="566" target="554" edge="1">
                    <mxGeometry x="5400" y="-300" as="geometry">
                        <Array as="points">
                            <mxPoint x="5756.21" y="-160.81000000000006"/>
                            <mxPoint x="5780.21" y="-160.81000000000006"/>
                        </Array>
                    </mxGeometry>
                </mxCell>
                <mxCell id="558" value="" style="ellipse;whiteSpace=wrap;html=1;aspect=fixed;fillColor=#e1d5e7;strokeColor=#000000;strokeWidth=4;" parent="1" vertex="1">
                    <mxGeometry x="5763.209999999999" y="-97.38999999999999" width="40" height="40" as="geometry"/>
                </mxCell>
                <mxCell id="559" value="" style="endArrow=none;html=1;rounded=0;strokeColor=#000000;entryX=0.5;entryY=0;entryDx=0;entryDy=0;exitX=0.5;exitY=1;exitDx=0;exitDy=0;strokeWidth=4;" parent="1" source="558" target="558" edge="1">
                    <mxGeometry x="5400" y="-300" width="50" height="50" as="geometry">
                        <mxPoint x="5790.62" y="-134.4000000000002" as="sourcePoint"/>
                        <mxPoint x="5840.62" y="-184.4000000000002" as="targetPoint"/>
                    </mxGeometry>
                </mxCell>
                <mxCell id="560" style="edgeStyle=orthogonalEdgeStyle;rounded=1;jumpStyle=none;jumpSize=6;orthogonalLoop=1;jettySize=auto;html=1;entryX=0.5;entryY=0;entryDx=0;entryDy=0;startArrow=none;startFill=0;endArrow=classic;endFill=1;startSize=1;endSize=1;strokeColor=#000000;strokeWidth=4;" parent="1" source="554" target="558" edge="1">
                    <mxGeometry x="5400" y="-300" as="geometry"/>
                </mxCell>
                <mxCell id="561" value="" style="endArrow=none;html=1;rounded=0;strokeColor=#000000;entryX=0;entryY=0.5;entryDx=0;entryDy=0;exitX=1;exitY=0.5;exitDx=0;exitDy=0;strokeWidth=4;" parent="1" source="558" target="558" edge="1">
                    <mxGeometry x="5400" y="-300" width="50" height="50" as="geometry">
                        <mxPoint x="5840.62" y="-234.4000000000002" as="sourcePoint"/>
                        <mxPoint x="5840.62" y="-294.4000000000002" as="targetPoint"/>
                    </mxGeometry>
                </mxCell>
                <mxCell id="562" value="" style="rounded=0;whiteSpace=wrap;html=1;glass=0;strokeColor=#000000;strokeWidth=4;fillColor=#FFD966;" parent="1" vertex="1">
                    <mxGeometry x="5826.73" y="-133.39" width="20" height="36" as="geometry"/>
                </mxCell>
                <mxCell id="563" value="" style="endArrow=none;html=1;rounded=0;startSize=1;endSize=1;strokeColor=#000000;strokeWidth=4;jumpStyle=none;jumpSize=6;" parent="1" edge="1">
                    <mxGeometry x="5400" y="-300" width="50" height="50" as="geometry">
                        <mxPoint x="5826.729999999998" y="-97.39000000000021" as="sourcePoint"/>
                        <mxPoint x="5836.729999999998" y="-107.89000000000021" as="targetPoint"/>
                    </mxGeometry>
                </mxCell>
                <mxCell id="564" value="" style="endArrow=none;html=1;rounded=0;startSize=1;endSize=1;strokeColor=#000000;strokeWidth=4;jumpStyle=none;jumpSize=6;" parent="1" edge="1">
                    <mxGeometry x="5400" y="-300" width="50" height="50" as="geometry">
                        <mxPoint x="5835.589999999998" y="-107.39000000000021" as="sourcePoint"/>
                        <mxPoint x="5845.589999999998" y="-97.39000000000021" as="targetPoint"/>
                    </mxGeometry>
                </mxCell>
                <mxCell id="565" style="edgeStyle=orthogonalEdgeStyle;orthogonalLoop=1;jettySize=auto;html=1;entryX=0;entryY=0.25;entryDx=0;entryDy=0;fontSize=12;fontColor=#000000;strokeWidth=2;endSize=0;rounded=1;fillColor=#f8cecc;exitX=1;exitY=0.5;exitDx=0;exitDy=0;" parent="1" source="558" target="562" edge="1">
                    <mxGeometry x="5400" y="-300" as="geometry">
                        <Array as="points">
                            <mxPoint x="5812" y="-77.63999999999999"/>
                            <mxPoint x="5812" y="-124.63999999999999"/>
                        </Array>
                        <mxPoint x="5846.715" y="-103.65309627332465" as="sourcePoint"/>
                    </mxGeometry>
                </mxCell>
                <mxCell id="566" value="" style="whiteSpace=wrap;html=1;aspect=fixed;fillColor=#dae8fc;strokeColor=#000000;strokeWidth=4;" parent="1" vertex="1">
                    <mxGeometry x="5742.17" y="-139.9000000000002" width="27.5" height="27.5" as="geometry"/>
                </mxCell>
                <mxCell id="656" value="&lt;font style=&quot;font-size: 20px&quot;&gt;Ifmap&lt;/font&gt;" style="whiteSpace=wrap;html=1;aspect=fixed;strokeWidth=3;fontSize=20;fontStyle=1;fillColor=#fff2cc;verticalAlign=bottom;" parent="1" vertex="1">
                    <mxGeometry x="5673.689999999999" y="-298" width="80" height="80" as="geometry"/>
                </mxCell>
                <mxCell id="680" style="edgeStyle=orthogonalEdgeStyle;rounded=1;html=1;entryX=0.5;entryY=0;entryDx=0;entryDy=0;fontSize=20;startArrow=none;startFill=0;endArrow=classic;endFill=1;strokeWidth=5;verticalAlign=bottom;strokeColor=#FF0000;" parent="1" source="657" target="484" edge="1">
                    <mxGeometry x="5400" y="-300" as="geometry"/>
                </mxCell>
                <mxCell id="657" value="" style="rounded=0;whiteSpace=wrap;html=1;fontSize=50;fontColor=#000000;strokeColor=#000000;strokeWidth=6;fillColor=#000000;rotation=90;" parent="1" vertex="1">
                    <mxGeometry x="5660.199999999999" y="-262.29999999999995" width="18.5" height="8.59" as="geometry"/>
                </mxCell>
                <mxCell id="658" style="edgeStyle=orthogonalEdgeStyle;rounded=0;orthogonalLoop=1;jettySize=auto;html=1;exitX=0.5;exitY=1;exitDx=0;exitDy=0;entryX=0.5;entryY=0;entryDx=0;entryDy=0;" parent="1" source="659" target="657" edge="1">
                    <mxGeometry x="5400" y="-300" as="geometry">
                        <Array as="points">
                            <mxPoint x="5694" y="-258.25"/>
                            <mxPoint x="5674" y="-258.25"/>
                        </Array>
                        <mxPoint x="5675.09" y="-202.65999999999997" as="targetPoint"/>
                    </mxGeometry>
                </mxCell>
                <mxCell id="659" value="RAG" style="ellipse;whiteSpace=wrap;html=1;aspect=fixed;sketch=0;strokeColor=#9673a6;fontSize=6;fillColor=#e1d5e7;" parent="1" vertex="1">
                    <mxGeometry x="5683.799999999999" y="-294.25" width="20" height="20" as="geometry"/>
                </mxCell>
                <mxCell id="660" value="" style="rounded=0;whiteSpace=wrap;html=1;fontSize=50;fontColor=#000000;strokeColor=#000000;strokeWidth=6;fillColor=#000000;rotation=90;" parent="1" vertex="1">
                    <mxGeometry x="5749.59" y="-264.4" width="18.5" height="8.59" as="geometry"/>
                </mxCell>
                <mxCell id="661" style="edgeStyle=orthogonalEdgeStyle;rounded=0;orthogonalLoop=1;jettySize=auto;html=1;exitX=0.5;exitY=1;exitDx=0;exitDy=0;" parent="1" source="662" edge="1">
                    <mxGeometry x="5400" y="-300" as="geometry">
                        <Array as="points">
                            <mxPoint x="5734" y="-260.25"/>
                        </Array>
                        <mxPoint x="5756" y="-260.25" as="targetPoint"/>
                    </mxGeometry>
                </mxCell>
                <mxCell id="662" value="WAG" style="ellipse;whiteSpace=wrap;html=1;aspect=fixed;sketch=0;strokeColor=#9673a6;fontSize=6;fillColor=#e1d5e7;" parent="1" vertex="1">
                    <mxGeometry x="5723.799999999999" y="-294.25" width="20" height="20" as="geometry"/>
                </mxCell>
                <mxCell id="663" value="&lt;font style=&quot;font-size: 20px&quot;&gt;Ifmap&lt;/font&gt;" style="whiteSpace=wrap;html=1;aspect=fixed;strokeWidth=3;fontSize=20;fontStyle=1;fillColor=#fff2cc;verticalAlign=bottom;" parent="1" vertex="1">
                    <mxGeometry x="5833.689999999999" y="-300" width="80" height="80" as="geometry"/>
                </mxCell>
                <mxCell id="678" style="edgeStyle=orthogonalEdgeStyle;rounded=1;html=1;entryX=0.5;entryY=0;entryDx=0;entryDy=0;fontSize=20;startArrow=none;startFill=0;endArrow=classic;endFill=1;strokeWidth=5;verticalAlign=bottom;strokeColor=#FF0000;" parent="1" source="664" target="660" edge="1">
                    <mxGeometry x="5400" y="-300" as="geometry"/>
                </mxCell>
                <mxCell id="681" style="edgeStyle=orthogonalEdgeStyle;rounded=1;html=1;fontSize=20;startArrow=none;startFill=0;endArrow=classic;endFill=1;strokeWidth=5;verticalAlign=bottom;strokeColor=#FF0000;" parent="1" source="664" target="554" edge="1">
                    <mxGeometry x="5400" y="-300" as="geometry"/>
                </mxCell>
                <mxCell id="664" value="" style="rounded=0;whiteSpace=wrap;html=1;fontSize=50;fontColor=#000000;strokeColor=#000000;strokeWidth=6;fillColor=#000000;rotation=90;" parent="1" vertex="1">
                    <mxGeometry x="5820.199999999999" y="-264.29999999999995" width="18.5" height="8.59" as="geometry"/>
                </mxCell>
                <mxCell id="665" style="edgeStyle=orthogonalEdgeStyle;rounded=0;orthogonalLoop=1;jettySize=auto;html=1;exitX=0.5;exitY=1;exitDx=0;exitDy=0;entryX=0.5;entryY=0;entryDx=0;entryDy=0;" parent="1" source="666" target="664" edge="1">
                    <mxGeometry x="5400" y="-300" as="geometry">
                        <Array as="points">
                            <mxPoint x="5854" y="-260.25"/>
                            <mxPoint x="5834" y="-260.25"/>
                        </Array>
                        <mxPoint x="5835.09" y="-204.65999999999997" as="targetPoint"/>
                    </mxGeometry>
                </mxCell>
                <mxCell id="666" value="RAG" style="ellipse;whiteSpace=wrap;html=1;aspect=fixed;sketch=0;strokeColor=#9673a6;fontSize=6;fillColor=#e1d5e7;" parent="1" vertex="1">
                    <mxGeometry x="5843.799999999999" y="-296.25" width="20" height="20" as="geometry"/>
                </mxCell>
                <mxCell id="682" style="edgeStyle=orthogonalEdgeStyle;rounded=1;html=1;fontSize=20;startArrow=classic;startFill=1;endArrow=none;endFill=0;strokeWidth=5;verticalAlign=bottom;strokeColor=#FF0000;" parent="1" source="667" edge="1">
                    <mxGeometry x="5400" y="-300" as="geometry">
                        <mxPoint x="5974.66" y="-262.1049999999999" as="targetPoint"/>
                    </mxGeometry>
                </mxCell>
                <mxCell id="667" value="" style="rounded=0;whiteSpace=wrap;html=1;fontSize=50;fontColor=#000000;strokeColor=#000000;strokeWidth=6;fillColor=#000000;rotation=90;" parent="1" vertex="1">
                    <mxGeometry x="5909.59" y="-266.4" width="18.5" height="8.59" as="geometry"/>
                </mxCell>
                <mxCell id="668" style="edgeStyle=orthogonalEdgeStyle;rounded=0;orthogonalLoop=1;jettySize=auto;html=1;exitX=0.5;exitY=1;exitDx=0;exitDy=0;" parent="1" source="669" edge="1">
                    <mxGeometry x="5400" y="-300" as="geometry">
                        <Array as="points">
                            <mxPoint x="5894" y="-262.25"/>
                        </Array>
                        <mxPoint x="5916" y="-262.25" as="targetPoint"/>
                    </mxGeometry>
                </mxCell>
                <mxCell id="669" value="WAG" style="ellipse;whiteSpace=wrap;html=1;aspect=fixed;sketch=0;strokeColor=#9673a6;fontSize=6;fillColor=#e1d5e7;" parent="1" vertex="1">
                    <mxGeometry x="5883.8" y="-296.25" width="20" height="20" as="geometry"/>
                </mxCell>
                <mxCell id="670" value="&lt;font style=&quot;font-size: 20px&quot;&gt;Ifmap&lt;/font&gt;" style="whiteSpace=wrap;html=1;aspect=fixed;strokeWidth=3;fontSize=20;fontStyle=1;fillColor=#fff2cc;verticalAlign=bottom;" parent="1" vertex="1">
                    <mxGeometry x="5514.4" y="-295.49" width="80" height="80" as="geometry"/>
                </mxCell>
                <mxCell id="679" style="edgeStyle=orthogonalEdgeStyle;rounded=1;html=1;entryX=0.502;entryY=0.058;entryDx=0;entryDy=0;entryPerimeter=0;fontSize=20;startArrow=none;startFill=0;endArrow=classic;endFill=1;strokeWidth=5;verticalAlign=bottom;strokeColor=#FF0000;" parent="1" source="671" target="470" edge="1">
                    <mxGeometry x="5400" y="-300" as="geometry"/>
                </mxCell>
                <mxCell id="671" value="" style="rounded=0;whiteSpace=wrap;html=1;fontSize=50;fontColor=#000000;strokeColor=#000000;strokeWidth=6;fillColor=#000000;rotation=90;" parent="1" vertex="1">
                    <mxGeometry x="5500.91" y="-259.78999999999996" width="18.5" height="8.59" as="geometry"/>
                </mxCell>
                <mxCell id="672" style="edgeStyle=orthogonalEdgeStyle;rounded=0;orthogonalLoop=1;jettySize=auto;html=1;exitX=0.5;exitY=1;exitDx=0;exitDy=0;entryX=0.5;entryY=0;entryDx=0;entryDy=0;" parent="1" source="673" target="671" edge="1">
                    <mxGeometry x="5400" y="-300" as="geometry">
                        <Array as="points">
                            <mxPoint x="5534.709999999999" y="-255.74"/>
                            <mxPoint x="5514.709999999999" y="-255.74"/>
                        </Array>
                        <mxPoint x="5515.799999999999" y="-200.14999999999998" as="targetPoint"/>
                    </mxGeometry>
                </mxCell>
                <mxCell id="673" value="RAG" style="ellipse;whiteSpace=wrap;html=1;aspect=fixed;sketch=0;strokeColor=#9673a6;fontSize=6;fillColor=#e1d5e7;" parent="1" vertex="1">
                    <mxGeometry x="5524.51" y="-291.74" width="20" height="20" as="geometry"/>
                </mxCell>
                <mxCell id="674" value="" style="rounded=0;whiteSpace=wrap;html=1;fontSize=50;fontColor=#000000;strokeColor=#000000;strokeWidth=6;fillColor=#000000;rotation=90;" parent="1" vertex="1">
                    <mxGeometry x="5590.299999999999" y="-261.89" width="18.5" height="8.59" as="geometry"/>
                </mxCell>
                <mxCell id="677" style="edgeStyle=orthogonalEdgeStyle;rounded=1;html=1;entryX=0.5;entryY=0;entryDx=0;entryDy=0;fontSize=20;startArrow=none;startFill=0;endArrow=classic;endFill=1;strokeWidth=5;verticalAlign=bottom;strokeColor=#FF0000;" parent="1" source="657" target="674" edge="1">
                    <mxGeometry x="5400" y="-300" as="geometry"/>
                </mxCell>
                <mxCell id="675" style="edgeStyle=orthogonalEdgeStyle;rounded=0;orthogonalLoop=1;jettySize=auto;html=1;exitX=0.5;exitY=1;exitDx=0;exitDy=0;" parent="1" source="676" edge="1">
                    <mxGeometry x="5400" y="-300" as="geometry">
                        <Array as="points">
                            <mxPoint x="5574.709999999999" y="-257.74"/>
                        </Array>
                        <mxPoint x="5596.709999999999" y="-257.74" as="targetPoint"/>
                    </mxGeometry>
                </mxCell>
                <mxCell id="676" value="WAG" style="ellipse;whiteSpace=wrap;html=1;aspect=fixed;sketch=0;strokeColor=#9673a6;fontSize=6;fillColor=#e1d5e7;" parent="1" vertex="1">
                    <mxGeometry x="5564.51" y="-291.74" width="20" height="20" as="geometry"/>
                </mxCell>
                <mxCell id="1woVSW_QeIxlfaoUP5wK-733" value="&lt;font style=&quot;font-size: 60px&quot;&gt;&lt;b&gt;Multiple Reads&lt;/b&gt;&lt;/font&gt;" style="text;html=1;strokeColor=none;fillColor=none;align=center;verticalAlign=middle;whiteSpace=wrap;rounded=0;fontSize=50;" parent="1" vertex="1">
                    <mxGeometry x="6070" y="20" width="680" height="75" as="geometry"/>
                </mxCell>
                <mxCell id="195" value="t=X-1" style="text;html=1;align=center;verticalAlign=middle;resizable=0;points=[];autosize=1;strokeColor=none;fillColor=none;fontSize=30;fontStyle=1" parent="1" vertex="1">
                    <mxGeometry x="6306.36" y="-228.34150042522663" width="90" height="40" as="geometry"/>
                </mxCell>
                <mxCell id="157" value="C0" style="whiteSpace=wrap;html=1;aspect=fixed;fillColor=#d5e8d4;strokeColor=#000000;strokeWidth=3;fontSize=30;fontStyle=1;verticalAlign=top;" parent="1" vertex="1">
                    <mxGeometry x="6373.01" y="-452.97" width="72.7" height="72.7" as="geometry"/>
                </mxCell>
                <mxCell id="158" value="" style="rounded=0;whiteSpace=wrap;html=1;fontSize=50;fontColor=#000000;strokeColor=#000000;strokeWidth=6;fillColor=#000000;" parent="1" vertex="1">
                    <mxGeometry x="6394.360000000001" y="-378.52" width="30" height="11" as="geometry"/>
                </mxCell>
                <mxCell id="160" value="RAG" style="ellipse;whiteSpace=wrap;html=1;aspect=fixed;sketch=0;fillColor=#d5e8d4;strokeColor=#82b366;" parent="1" vertex="1">
                    <mxGeometry x="6393.96" y="-415.27" width="30" height="30" as="geometry"/>
                </mxCell>
                <mxCell id="165" value="0" style="rounded=0;whiteSpace=wrap;html=1;fontSize=15;strokeWidth=2;fontStyle=1;fillColor=#d5e8d4;strokeColor=#000000;" parent="1" vertex="1">
                    <mxGeometry x="6398.919746551833" y="-334.8300458848555" width="20.691617301912025" height="22.19531994510499" as="geometry"/>
                </mxCell>
                <mxCell id="197" style="edgeStyle=orthogonalEdgeStyle;rounded=1;html=1;entryX=0.5;entryY=0;entryDx=0;entryDy=0;fontSize=30;startArrow=none;startFill=0;endArrow=classic;endFill=1;strokeColor=#000000;strokeWidth=3;verticalAlign=middle;" parent="1" source="158" target="165" edge="1">
                    <mxGeometry x="6334.67" y="-452.97" as="geometry"/>
                </mxCell>
                <mxCell id="166" style="edgeStyle=orthogonalEdgeStyle;curved=1;orthogonalLoop=1;jettySize=auto;html=1;entryX=1;entryY=0.5;entryDx=0;entryDy=0;fontSize=12;endSize=1;strokeWidth=3;strokeColor=#FF0000;" parent="1" edge="1">
                    <mxGeometry x="6345.09" y="-351.77" as="geometry">
                        <mxPoint x="6419.6113638537445" y="-323.76978913665494" as="sourcePoint"/>
                        <mxPoint x="6419.6113638537445" y="-301.55926128714304" as="targetPoint"/>
                        <Array as="points">
                            <mxPoint x="6440.820271588204" y="-324.0986086913972"/>
                            <mxPoint x="6440.820271588204" y="-301.9032887462922"/>
                        </Array>
                    </mxGeometry>
                </mxCell>
                <mxCell id="167" value="1" style="rounded=0;whiteSpace=wrap;html=1;fontSize=15;strokeWidth=2;fontStyle=1;fillColor=#d5e8d4;strokeColor=#000000;" parent="1" vertex="1">
                    <mxGeometry x="6398.919746551833" y="-312.6347259397505" width="20.691617301912025" height="22.19531994510499" as="geometry"/>
                </mxCell>
                <mxCell id="168" value="2" style="rounded=0;whiteSpace=wrap;html=1;fontSize=15;strokeWidth=2;fontStyle=1;fillColor=#d5e8d4;strokeColor=#000000;" parent="1" vertex="1">
                    <mxGeometry x="6398.919746551833" y="-290.43940599464554" width="20.691617301912025" height="22.19531994510499" as="geometry"/>
                </mxCell>
                <mxCell id="174" style="edgeStyle=orthogonalEdgeStyle;curved=1;orthogonalLoop=1;jettySize=auto;html=1;entryX=0;entryY=0.5;entryDx=0;entryDy=0;fontSize=12;strokeWidth=3;endSize=1;strokeColor=#FF0000;" parent="1" edge="1">
                    <mxGeometry x="6345.09" y="-351.77" as="geometry">
                        <mxPoint x="6382.883743142851" y="-336.28383934125964" as="sourcePoint"/>
                        <mxPoint x="6398.919746551833" y="-322.3007877758439" as="targetPoint"/>
                        <Array as="points">
                            <mxPoint x="6382.883743142851" y="-344.84013518009783"/>
                            <mxPoint x="6382.883743142851" y="-322.64481523499285"/>
                        </Array>
                    </mxGeometry>
                </mxCell>
                <mxCell id="175" style="edgeStyle=orthogonalEdgeStyle;curved=1;orthogonalLoop=1;jettySize=auto;html=1;entryX=0;entryY=0.5;entryDx=0;entryDy=0;fontSize=12;strokeWidth=3;endSize=1;strokeColor=#FF0000;" parent="1" edge="1">
                    <mxGeometry x="6345.09" y="-351.77" as="geometry">
                        <mxPoint x="6398.919746551833" y="-300.1095780751732" as="sourcePoint"/>
                        <mxPoint x="6398.919746551833" y="-277.8990502256613" as="targetPoint"/>
                        <Array as="points">
                            <mxPoint x="6382.883743142851" y="-300.43839762991524"/>
                            <mxPoint x="6382.883743142851" y="-278.2430776848104"/>
                        </Array>
                    </mxGeometry>
                </mxCell>
                <mxCell id="176" style="edgeStyle=orthogonalEdgeStyle;curved=1;orthogonalLoop=1;jettySize=auto;html=1;entryX=1;entryY=0.5;entryDx=0;entryDy=0;fontSize=12;endSize=1;strokeWidth=3;strokeColor=#FF0000;" parent="1" edge="1">
                    <mxGeometry x="6345.09" y="-351.77" as="geometry">
                        <mxPoint x="6419.6113638537445" y="-279.36805158647235" as="sourcePoint"/>
                        <mxPoint x="6419.6113638537445" y="-257.15752373696057" as="targetPoint"/>
                        <Array as="points">
                            <mxPoint x="6440.820271588204" y="-279.69687114121473"/>
                            <mxPoint x="6440.820271588204" y="-257.50155119610974"/>
                        </Array>
                    </mxGeometry>
                </mxCell>
                <mxCell id="180" value="t=1" style="text;html=1;align=center;verticalAlign=middle;resizable=0;points=[];autosize=1;strokeColor=none;fillColor=none;fontSize=30;fontStyle=1" parent="1" vertex="1">
                    <mxGeometry x="6439.879492156061" y="-351.1928754913403" width="60" height="40" as="geometry"/>
                </mxCell>
                <mxCell id="181" value="t=2" style="text;html=1;align=center;verticalAlign=middle;resizable=0;points=[];autosize=1;strokeColor=none;fillColor=none;fontSize=30;fontStyle=1" parent="1" vertex="1">
                    <mxGeometry x="6322.512904325478" y="-308.9563283657554" width="60" height="40" as="geometry"/>
                </mxCell>
                <mxCell id="184" value="" style="endArrow=none;dashed=1;html=1;fontSize=15;endSize=1;strokeWidth=2;curved=1;fontStyle=1" parent="1" edge="1">
                    <mxGeometry x="6345.09" y="-497.6200000000001" width="50" height="50" as="geometry">
                        <mxPoint x="6409.17244292493" y="-236.5315264887006" as="sourcePoint"/>
                        <mxPoint x="6409.09" y="-268.24" as="targetPoint"/>
                    </mxGeometry>
                </mxCell>
                <mxCell id="185" value="t=3" style="text;html=1;align=center;verticalAlign=middle;resizable=0;points=[];autosize=1;strokeColor=none;fillColor=none;fontSize=30;fontStyle=1" parent="1" vertex="1">
                    <mxGeometry x="6439.879492156061" y="-301.36489024495376" width="60" height="40" as="geometry"/>
                </mxCell>
                <mxCell id="190" value="X-1" style="rounded=0;whiteSpace=wrap;html=1;fontSize=15;strokeWidth=2;fontStyle=1;fillColor=#d5e8d4;strokeColor=#000000;" parent="1" vertex="1">
                    <mxGeometry x="6395.1900000000005" y="-237.99" width="28.17" height="22.2" as="geometry"/>
                </mxCell>
                <mxCell id="191" style="edgeStyle=orthogonalEdgeStyle;curved=1;orthogonalLoop=1;jettySize=auto;html=1;fontSize=12;strokeWidth=3;endSize=1;entryX=0;entryY=0.5;entryDx=0;entryDy=0;strokeColor=#FF0000;" parent="1" target="190" edge="1">
                    <mxGeometry x="6345.09" y="-497.6200000000001" as="geometry">
                        <mxPoint x="6372.67" y="-249.51999999999998" as="sourcePoint"/>
                        <mxPoint x="6355.208705001543" y="-215.78999999999985" as="targetPoint"/>
                        <Array as="points">
                            <mxPoint x="6372.67" y="-226.51999999999998"/>
                        </Array>
                    </mxGeometry>
                </mxCell>
                <mxCell id="192" value="" style="endArrow=classic;html=1;fontSize=12;endSize=1;strokeWidth=3;curved=1;exitX=1;exitY=0.5;exitDx=0;exitDy=0;entryX=1.114;entryY=-0.002;entryDx=0;entryDy=0;entryPerimeter=0;strokeColor=#FF0000;" parent="1" source="190" target="165" edge="1">
                    <mxGeometry x="3117.0899999999997" y="17.610000000000014" width="50" height="50" as="geometry">
                        <mxPoint x="6484.665808650956" y="-136.525959835315" as="sourcePoint"/>
                        <mxPoint x="6536.394851905737" y="-192.01425969807747" as="targetPoint"/>
                        <Array as="points">
                            <mxPoint x="6472.67" y="-240"/>
                            <mxPoint x="6522.67" y="-300"/>
                            <mxPoint x="6467.09" y="-392.3900000000001"/>
                        </Array>
                    </mxGeometry>
                </mxCell>
                <mxCell id="193" value="t=X" style="text;html=1;align=center;verticalAlign=middle;resizable=0;points=[];autosize=1;strokeColor=none;fillColor=none;fontSize=30;fontStyle=1" parent="1" vertex="1">
                    <mxGeometry x="6426.472252570233" y="-228.34000000000015" width="60" height="40" as="geometry"/>
                </mxCell>
                <mxCell id="194" value="t=0" style="text;html=1;align=center;verticalAlign=middle;resizable=0;points=[];autosize=1;strokeColor=none;fillColor=none;fontSize=30;fontStyle=1" parent="1" vertex="1">
                    <mxGeometry x="6322.512904325478" y="-352.63856639242454" width="60" height="40" as="geometry"/>
                </mxCell>
                <mxCell id="286" value="" style="ellipse;whiteSpace=wrap;html=1;aspect=fixed;fontSize=30;strokeColor=#000000;fillColor=#FFD966;opacity=80;" parent="1" vertex="1">
                    <mxGeometry x="6334.67" y="-196.92999999999995" width="150" height="150" as="geometry"/>
                </mxCell>
                <mxCell id="287" value="" style="ellipse;whiteSpace=wrap;html=1;aspect=fixed;fillColor=#67AB9F;strokeWidth=4;strokeColor=#000000;" parent="1" vertex="1">
                    <mxGeometry x="6394.51" y="-182.19000000000005" width="40" height="40" as="geometry"/>
                </mxCell>
                <mxCell id="288" value="" style="endArrow=none;html=1;rounded=0;strokeColor=#000000;strokeWidth=4;exitX=0;exitY=0;exitDx=0;exitDy=0;entryX=1;entryY=1;entryDx=0;entryDy=0;" parent="1" source="287" target="287" edge="1">
                    <mxGeometry x="6334.67" y="-452.97" width="50" height="50" as="geometry">
                        <mxPoint x="6410.29" y="-150.44000000000005" as="sourcePoint"/>
                        <mxPoint x="6435.29" y="-181.69000000000005" as="targetPoint"/>
                    </mxGeometry>
                </mxCell>
                <mxCell id="289" value="" style="endArrow=none;html=1;rounded=0;strokeColor=#000000;strokeWidth=4;exitX=0;exitY=1;exitDx=0;exitDy=0;entryX=1;entryY=0;entryDx=0;entryDy=0;" parent="1" source="287" target="287" edge="1">
                    <mxGeometry x="6334.67" y="-452.97" width="50" height="50" as="geometry">
                        <mxPoint x="6366.147864376269" y="-205.61766952966377" as="sourcePoint"/>
                        <mxPoint x="6394.601484117606" y="-170.47658188030346" as="targetPoint"/>
                    </mxGeometry>
                </mxCell>
                <mxCell id="290" style="edgeStyle=orthogonalEdgeStyle;jumpStyle=none;jumpSize=6;orthogonalLoop=1;jettySize=auto;html=1;entryX=0;entryY=0.5;entryDx=0;entryDy=0;startArrow=none;startFill=0;endArrow=classic;endFill=1;startSize=1;endSize=1;strokeColor=#000000;strokeWidth=3;rounded=1;exitX=0.5;exitY=0;exitDx=0;exitDy=0;" parent="1" source="299" target="287" edge="1">
                    <mxGeometry x="6334.67" y="-452.97" as="geometry">
                        <Array as="points">
                            <mxPoint x="6370.88" y="-162.10000000000014"/>
                            <mxPoint x="6394.88" y="-162.10000000000014"/>
                        </Array>
                    </mxGeometry>
                </mxCell>
                <mxCell id="291" value="" style="ellipse;whiteSpace=wrap;html=1;aspect=fixed;fillColor=#e1d5e7;strokeColor=#000000;strokeWidth=4;" parent="1" vertex="1">
                    <mxGeometry x="6377.879999999999" y="-98.68000000000006" width="40" height="40" as="geometry"/>
                </mxCell>
                <mxCell id="292" value="" style="endArrow=none;html=1;rounded=0;strokeColor=#000000;entryX=0.5;entryY=0;entryDx=0;entryDy=0;exitX=0.5;exitY=1;exitDx=0;exitDy=0;strokeWidth=4;" parent="1" source="291" target="291" edge="1">
                    <mxGeometry x="6334.67" y="-452.97" width="50" height="50" as="geometry">
                        <mxPoint x="6405.29" y="-135.69000000000005" as="sourcePoint"/>
                        <mxPoint x="6455.29" y="-185.69000000000005" as="targetPoint"/>
                    </mxGeometry>
                </mxCell>
                <mxCell id="293" style="edgeStyle=orthogonalEdgeStyle;rounded=1;jumpStyle=none;jumpSize=6;orthogonalLoop=1;jettySize=auto;html=1;entryX=0.5;entryY=0;entryDx=0;entryDy=0;startArrow=none;startFill=0;endArrow=classic;endFill=1;startSize=1;endSize=1;strokeColor=#000000;strokeWidth=4;" parent="1" source="287" target="291" edge="1">
                    <mxGeometry x="6334.67" y="-452.97" as="geometry"/>
                </mxCell>
                <mxCell id="294" value="" style="endArrow=none;html=1;rounded=0;strokeColor=#000000;entryX=0;entryY=0.5;entryDx=0;entryDy=0;exitX=1;exitY=0.5;exitDx=0;exitDy=0;strokeWidth=4;" parent="1" source="291" target="291" edge="1">
                    <mxGeometry x="6334.67" y="-452.97" width="50" height="50" as="geometry">
                        <mxPoint x="6455.29" y="-235.69000000000005" as="sourcePoint"/>
                        <mxPoint x="6455.29" y="-295.69000000000005" as="targetPoint"/>
                    </mxGeometry>
                </mxCell>
                <mxCell id="295" value="" style="rounded=0;whiteSpace=wrap;html=1;glass=0;strokeColor=#000000;strokeWidth=4;fillColor=#FFD966;" parent="1" vertex="1">
                    <mxGeometry x="6441.4" y="-134.68000000000006" width="20" height="36" as="geometry"/>
                </mxCell>
                <mxCell id="296" value="" style="endArrow=none;html=1;rounded=0;startSize=1;endSize=1;strokeColor=#000000;strokeWidth=4;jumpStyle=none;jumpSize=6;" parent="1" edge="1">
                    <mxGeometry x="6334.67" y="-452.97" width="50" height="50" as="geometry">
                        <mxPoint x="6441.399999999998" y="-98.68000000000006" as="sourcePoint"/>
                        <mxPoint x="6451.399999999998" y="-109.18000000000006" as="targetPoint"/>
                    </mxGeometry>
                </mxCell>
                <mxCell id="297" value="" style="endArrow=none;html=1;rounded=0;startSize=1;endSize=1;strokeColor=#000000;strokeWidth=4;jumpStyle=none;jumpSize=6;" parent="1" edge="1">
                    <mxGeometry x="6334.67" y="-452.97" width="50" height="50" as="geometry">
                        <mxPoint x="6450.259999999998" y="-108.68000000000006" as="sourcePoint"/>
                        <mxPoint x="6460.259999999998" y="-98.68000000000006" as="targetPoint"/>
                    </mxGeometry>
                </mxCell>
                <mxCell id="298" style="edgeStyle=orthogonalEdgeStyle;orthogonalLoop=1;jettySize=auto;html=1;entryX=0;entryY=0.25;entryDx=0;entryDy=0;fontSize=12;fontColor=#000000;strokeWidth=2;endSize=0;rounded=1;fillColor=#f8cecc;exitX=1;exitY=0.5;exitDx=0;exitDy=0;" parent="1" source="291" target="295" edge="1">
                    <mxGeometry x="6334.67" y="-452.97" as="geometry">
                        <Array as="points">
                            <mxPoint x="6426.67" y="-78.92999999999995"/>
                            <mxPoint x="6426.67" y="-125.92999999999995"/>
                        </Array>
                        <mxPoint x="6461.385" y="-104.94309627332461" as="sourcePoint"/>
                    </mxGeometry>
                </mxCell>
                <mxCell id="299" value="" style="whiteSpace=wrap;html=1;aspect=fixed;fillColor=#dae8fc;strokeColor=#000000;strokeWidth=4;" parent="1" vertex="1">
                    <mxGeometry x="6356.84" y="-141.19000000000005" width="27.5" height="27.5" as="geometry"/>
                </mxCell>
                <mxCell id="155" value="" style="endArrow=classic;html=1;rounded=1;fontSize=12;fontColor=#000000;startSize=0;endSize=0;strokeWidth=3;entryX=0.5;entryY=0;entryDx=0;entryDy=0;exitX=0.5;exitY=1;exitDx=0;exitDy=0;jumpStyle=arc;" parent="1" source="190" target="286" edge="1">
                    <mxGeometry x="6334.67" y="-452.97" width="50" height="50" as="geometry">
                        <mxPoint x="6419.67" y="-257.1400000000001" as="sourcePoint"/>
                        <mxPoint x="6409.299999999999" y="-155.23000000000002" as="targetPoint"/>
                    </mxGeometry>
                </mxCell>
            </root>
        </mxGraphModel>
    </diagram>
</mxfile>